<svg width="118" height="152" viewBox="0 0 118 152" fill="none" xmlns="http://www.w3.org/2000/svg">
<g clip-path="url(#clip0_1138_2843)" filter="url(#filter0_d_1138_2843)">
<path d="M58.0965 146H55.9028C55.7461 146 55.5894 146 55.4327 145.843L55.1193 145.685C54.9626 145.685 54.9626 145.528 54.806 145.528C41.0168 142.852 29.1079 136.243 19.7062 126.17C9.20766 115.154 3.25324 101.934 2.31307 86.9836C1.84299 80.8459 1.99968 74.7082 1.99968 68.7279V66.0525C1.99968 62.5902 2.31307 59.2852 2.78316 56.1377C6.85723 30.9574 29.1079 11.2852 54.3359 10.341C70.1621 9.71147 84.1079 15.0623 95.39 26.0787C105.262 35.6787 110.589 47.3246 111.686 60.859C112.156 66.682 112 72.6623 112 78.4852V80.2164C112 84.4656 111.843 88.2426 111.216 92.0197C106.515 117.672 91.6293 134.984 67.1849 143.797C65.3045 144.426 63.2675 144.898 61.2304 145.37C60.2903 145.528 59.5068 145.843 58.5666 146C58.4099 146 58.2532 146 58.0965 146ZM56.2162 142.852H57.9399C58.7233 142.695 59.6635 142.38 60.447 142.223C62.3273 141.751 64.2077 141.279 66.088 140.649C89.5923 132.308 103.695 115.784 108.082 91.3902C108.709 87.9279 108.866 84.1508 108.866 80.2164V78.4852C108.866 72.8197 109.022 66.8393 108.552 61.1738C107.612 48.5836 102.441 37.5672 93.1963 28.4393C82.6977 17.8951 69.692 13.0164 54.6493 13.4885C30.6749 14.4328 9.83444 32.8459 5.91706 56.6098C5.44697 59.6 5.13358 62.7475 5.13358 66.0525V68.7279C5.13358 74.5508 4.97689 80.6885 5.44697 86.6689C6.38715 100.833 12.0282 113.58 21.9 124.282C30.8316 133.882 42.1136 140.02 55.276 142.695C55.5894 142.695 55.9028 142.852 56.2162 142.852ZM64.9911 129.475C62.1706 129.475 60.1336 128.689 56.9997 126.8C54.6493 128.531 51.9854 129.475 49.1649 129.475C45.8743 129.633 43.2105 127.272 43.0538 124.125C42.8971 120.977 45.2475 118.459 48.5381 118.144C50.4185 117.987 51.3587 117.043 51.3587 115.154C51.3587 114.525 51.3587 113.895 51.5154 113.266C51.6721 112.007 51.672 110.748 51.3587 109.803C51.0453 109.016 50.1051 108.23 49.1649 107.285C48.6948 106.813 48.2248 106.498 47.7547 106.026C47.2846 105.554 46.9712 105.239 46.5011 104.767C46.031 104.295 45.5609 103.823 44.9342 103.193C43.2105 101.462 42.7404 99.259 43.5239 96.8984C45.5609 91.0754 50.7319 87.4557 56.9997 87.2984C56.9997 87.2984 56.9997 87.2984 57.1564 87.2984C63.2675 87.2984 68.5951 91.0754 70.6322 96.8984C71.4156 99.259 70.9455 101.462 69.0652 103.351L67.4983 104.925C66.088 106.341 64.521 107.915 63.1108 109.331C62.9541 109.489 62.7974 109.803 62.7974 110.118C62.7974 111.534 62.7974 112.793 62.7974 114.367V115.311C62.7974 117.043 63.7376 117.987 65.4612 118.144C68.9085 118.459 71.2589 120.977 70.9455 124.125C70.6322 127.272 68.2817 129.475 64.9911 129.475ZM56.9997 123.338C57.3131 123.338 57.6265 123.495 57.9399 123.652C61.0738 125.698 62.7974 126.485 64.9911 126.485C66.5581 126.485 67.655 125.541 67.8116 124.125C67.9683 122.708 66.8715 121.607 65.1478 121.449C61.8572 121.134 59.6635 118.774 59.6635 115.469V114.525C59.6635 113.108 59.6635 111.534 59.6635 110.118C59.6635 109.174 60.1336 108.072 60.9171 107.443C62.3273 105.869 63.8943 104.452 65.4612 102.879L67.0282 101.305C67.9683 100.361 68.2817 99.4164 67.8116 98.1574C66.2447 93.7508 62.0139 90.7607 57.3131 90.7607C52.4555 90.7607 48.3815 93.7508 46.8145 98.1574C46.3444 99.4164 46.6578 100.361 47.4413 101.148C47.9114 101.62 48.3815 102.092 48.8515 102.564C49.3216 103.036 49.635 103.351 50.1051 103.823C50.4185 104.295 50.8886 104.61 51.3587 104.925C52.6122 106.026 53.8658 106.97 54.3359 108.544C54.9626 110.118 54.806 111.849 54.806 113.423C54.806 114.052 54.6493 114.525 54.6493 115.154C54.6493 118.774 52.4555 120.977 49.0082 121.292C47.4413 121.449 46.3444 122.551 46.5011 123.967C46.6578 125.384 47.7547 126.485 49.3216 126.328C51.8287 126.328 54.0225 125.384 56.2162 123.652C56.2162 123.495 56.5296 123.338 56.9997 123.338ZM73.4527 117.2C72.0424 117.2 70.6322 116.728 69.5353 115.626C67.3416 113.423 67.1849 110.118 69.2219 107.6L69.5353 107.285C70.3188 106.341 71.1022 105.397 71.8857 104.295C74.8629 99.8885 79.2504 97.6852 84.8914 97.5279C87.2419 97.5279 89.2789 98.3148 90.3758 100.046C91.4726 101.462 91.6293 103.351 91.0025 105.082C90.0624 107.443 88.182 109.016 85.6749 108.859C83.1678 108.859 81.6008 109.646 80.1906 111.849C79.4071 113.108 78.3102 114.21 77.37 115.311C76.4299 116.57 74.8629 117.2 73.4527 117.2ZM85.2048 100.675C85.0481 100.675 85.0481 100.675 85.2048 100.675C80.504 100.675 77.0567 102.564 74.5495 106.026C73.7661 107.128 72.8259 108.23 72.0424 109.174L71.729 109.489C70.7889 110.748 70.7889 112.164 71.729 113.108C72.8259 114.052 74.3928 114.052 75.333 112.951C76.1165 112.007 77.0567 111.062 77.6834 109.961C79.5638 106.813 82.2276 105.397 85.8316 105.554C86.9285 105.554 87.5552 105.082 88.0253 103.823C88.3387 103.036 88.182 102.249 87.8686 101.62C87.3985 101.148 86.4584 100.675 85.2048 100.675ZM40.5467 117.2C38.9797 117.2 37.4128 116.57 36.1592 115.154C35.0624 113.895 33.8088 112.479 32.8686 110.905C31.9285 109.489 30.6749 108.859 28.9513 108.859C28.7946 108.859 28.7946 108.859 28.6379 108.859C28.1678 108.859 27.6977 108.859 27.0709 108.702C24.2504 108.072 22.2134 105.397 22.5267 102.564C22.8401 99.7311 25.1906 97.5279 28.0111 97.3705C28.1678 97.3705 28.4812 97.3705 28.6379 97.3705H28.9513C34.5923 97.5279 38.9797 99.7311 41.9569 104.138C42.7404 105.239 43.5239 106.341 44.4641 107.285L44.6208 107.443C46.6578 109.961 46.5011 113.423 44.3074 115.626C43.2105 116.728 41.9569 117.2 40.5467 117.2ZM28.9513 105.711C31.7718 105.711 33.9655 106.813 35.5324 109.016C36.4726 110.433 37.5695 111.849 38.6663 112.951C39.7632 114.052 41.1735 114.21 42.2703 113.266C43.3672 112.321 43.3672 110.748 42.2703 109.489L42.1136 109.331C41.1735 108.23 40.2333 107.128 39.4498 106.026C36.9427 102.407 33.4954 100.675 28.9513 100.675H28.6379C28.4812 100.675 28.3245 100.675 28.1678 100.675C26.7575 100.675 25.8173 101.777 25.6607 103.036C25.504 104.295 26.4441 105.554 27.6977 105.711C28.1678 105.711 28.4812 105.711 28.9513 105.711ZM48.5381 88.2426H48.3815C33.3387 87.7705 20.9598 81.6328 11.5581 69.8295C9.99113 67.941 9.83444 65.7377 10.7746 63.6918C11.8715 61.6459 13.5951 60.5443 16.1022 60.5443H28.6379H31.9285C34.749 60.5443 37.4128 60.5443 40.0766 60.5443C48.2248 60.5443 54.3359 66.5246 54.3359 74.7082C54.3359 77.2262 54.3359 79.7443 54.3359 82.2623C54.3359 84.1508 53.7091 85.7246 52.6122 86.8262C51.672 87.7705 50.2618 88.2426 48.5381 88.2426ZM16.1022 63.5344C14.8487 63.5344 14.0652 64.0066 13.5951 64.9508C13.125 65.8951 13.2817 66.8393 14.0652 67.7836C22.8401 78.8 34.4356 84.6229 48.3815 85.0951C49.3216 85.0951 49.9484 84.9377 50.4185 84.4656C51.0453 83.8361 51.202 82.8918 51.202 82.1049C51.202 79.5869 51.202 77.0688 51.202 74.5508C51.202 68.0984 46.5011 63.5344 40.0766 63.5344C37.4128 63.5344 34.5923 63.5344 31.9285 63.5344H28.6379H16.1022ZM65.6179 88.2426C63.8943 88.2426 62.3273 87.7705 61.2304 86.6689C60.1336 85.5672 59.5068 83.9934 59.5068 82.1049C59.5068 81.318 59.5068 80.3738 59.5068 79.5869C59.5068 77.0689 59.5068 74.5508 59.8202 71.8754C60.7604 65.423 66.4014 60.5443 72.9826 60.3869C75.8031 60.3869 78.6236 60.3869 81.6008 60.3869C82.8544 60.3869 83.9512 60.3869 85.2048 60.3869H85.3615H88.8088C91.6293 60.3869 94.6065 60.3869 97.427 60.3869C100.091 60.3869 101.971 61.4885 103.068 63.5344C103.852 64.9508 104.322 67.3115 102.128 69.9869C92.8829 81.6328 80.504 87.7705 65.7746 88.2426H65.6179ZM77.8401 63.5344C76.2732 63.5344 74.7062 63.5344 73.1393 63.5344C67.9683 63.6918 63.7376 67.3115 62.9541 72.1902C62.6407 74.5508 62.6407 76.9115 62.6407 79.4295C62.6407 80.3738 62.6407 81.1607 62.6407 82.1049C62.6407 82.8918 62.7974 83.8361 63.4242 84.4656C63.8943 84.9377 64.6777 85.2525 65.7746 85.0951C79.7205 84.6229 91.1592 78.9574 99.9342 67.941C101.031 66.5246 100.874 65.5803 100.404 64.9508C100.091 64.1639 99.4641 63.377 97.5837 63.5344C94.7632 63.5344 91.786 63.5344 88.9655 63.5344H85.6749H85.5182C84.2646 63.5344 83.0111 63.5344 81.7575 63.5344C80.3473 63.5344 79.0937 63.5344 77.8401 63.5344ZM48.6948 59.4426C47.2846 59.4426 46.031 58.8131 45.0909 57.8689C44.3074 56.9246 43.3672 55.3508 43.2105 53.7771C43.0538 49.6852 41.6436 46.3803 38.6663 43.3902L38.0396 42.7607C37.5695 42.2885 36.9427 41.659 36.4726 41.1869C34.2789 38.8262 34.4356 35.3639 36.6293 33.1607C38.823 30.9574 42.427 30.9574 44.7775 33.318C48.2248 36.6229 51.672 40.4 53.239 45.5934C53.7091 47.1672 54.0225 48.8984 54.3359 50.4721C54.4926 51.259 54.6493 51.8885 54.806 52.6754C54.806 52.8328 54.806 52.9902 54.806 53.1475C54.6493 55.9803 53.5524 57.8689 51.3587 58.9705C50.4185 59.2852 49.4783 59.4426 48.6948 59.4426ZM40.5467 34.577C39.9199 34.577 39.2931 34.8918 38.823 35.3639C37.8829 36.3082 37.8829 37.882 38.823 38.9836C39.2931 39.4557 39.7632 39.9279 40.2333 40.5574L40.8601 41.1869C44.3074 44.6492 46.031 48.741 46.3444 53.6197C46.3444 54.2492 46.8145 55.0361 47.2846 55.6656C47.9114 56.4525 48.8515 56.4525 49.7917 55.9803C50.8886 55.5082 51.3587 54.5639 51.5154 52.9902C51.3587 52.3607 51.202 51.7311 51.0453 50.9443C50.7319 49.3705 50.4185 47.7967 49.9484 46.3803C48.6948 41.9738 45.4042 38.5115 42.2703 35.5213C41.957 34.8918 41.1735 34.577 40.5467 34.577ZM65.3045 59.4426C63.7376 59.4426 62.3273 58.8131 61.3871 57.8689C60.2903 56.6098 59.6635 54.8787 59.6635 52.8328C59.8202 47.3246 61.5438 42.4459 64.9911 38.1967C66.2447 36.6229 67.655 35.2066 69.3786 33.318C71.5723 30.9574 75.0196 30.8 77.37 33.0033C79.7205 35.2066 79.8772 38.6688 77.6834 41.1869C77.2134 41.659 76.7433 42.2885 76.1165 42.7607C75.8031 43.0754 75.4897 43.3902 75.1763 43.7049C72.5125 46.5377 71.2589 49.5279 71.1022 53.1475C70.7889 56.9246 68.5951 59.4426 65.3045 59.4426ZM62.7974 52.8328C62.7974 53.9344 63.1108 55.0361 63.5809 55.5082C64.051 55.9803 64.521 56.1377 65.3045 56.1377C67.3416 56.1377 67.8116 54.0918 67.8116 52.8328C67.9683 48.5836 69.692 44.6492 72.8259 41.3443C73.1393 41.0295 73.6094 40.5574 73.9228 40.2426C74.3928 39.7705 74.8629 39.2984 75.333 38.8262C76.4299 37.5672 76.4299 36.1508 75.333 35.0492C74.2361 34.1049 72.8259 34.1049 71.729 35.2066C70.0054 36.9377 68.7518 38.5115 67.4983 39.9279C64.3644 43.8623 62.7974 48.1115 62.7974 52.8328Z" fill="url(#paint0_linear_1138_2843)"/>
<path d="M3.56695 35.6787C3.41026 35.6787 3.25356 35.6787 3.09687 35.6787C2.47009 35.5213 2 34.8918 2 34.1049V8.45246C2 6.40656 2.62678 4.83278 3.72365 3.73115C4.82051 2.62951 6.54416 2.15738 8.4245 2.15738H10.9316C14.3789 2.15738 17.9829 2.31475 21.5869 2.78688C25.3476 3.25901 29.1083 4.83279 33.0256 7.66557C33.4957 7.98033 33.8091 8.60983 33.6524 9.08197C33.6524 9.71147 33.1823 10.1836 32.7122 10.341C21.1168 15.6918 11.8718 23.718 4.97721 35.0492C4.66382 35.5213 4.19373 35.6787 3.56695 35.6787ZM8.11111 5.14754C7.17094 5.14754 6.38746 5.46229 5.91738 5.93442C5.44729 6.40656 5.1339 7.19344 5.1339 8.45246V29.0688C11.5584 20.2557 19.3932 13.4885 29.1083 8.60983C26.4444 7.03606 23.9373 6.0918 21.2735 5.77705C17.8262 5.30492 14.3789 5.30492 10.9316 5.30492L8.4245 5.14754C8.26781 5.14754 8.26781 5.14754 8.11111 5.14754Z" fill="url(#paint1_linear_1138_2843)"/>
<path d="M110.433 35.6787C109.963 35.6787 109.336 35.3639 109.179 34.8918C102.128 23.718 92.8827 15.5344 81.1306 10.1836C80.6605 10.0262 80.1904 9.39672 80.1904 8.92459C80.1904 8.29508 80.3471 7.82295 80.8172 7.5082C85.6748 4.20328 91.0024 2.31475 96.6434 2.15738C99.4639 2 102.441 2 105.262 2H106.359C109.492 2 112 4.51803 112 7.5082C112 13.9607 112 20.4131 112 26.8656V34.1049C112 34.7344 111.529 35.3639 110.903 35.6787C110.746 35.6787 110.589 35.6787 110.433 35.6787ZM85.048 8.60984C94.6064 13.4885 102.598 20.0984 108.866 28.9115V26.8656C108.866 20.4131 108.866 13.9607 108.866 7.5082C108.866 6.0918 107.769 5.14754 106.359 5.14754H105.262C102.598 5.14754 99.6206 5.14754 96.9568 5.14754C92.5693 5.4623 88.8087 6.56393 85.048 8.60984Z" fill="url(#paint2_linear_1138_2843)"/>
<path d="M44.6211 79.7443C44.4644 79.7443 44.4644 79.7443 44.3077 79.7443C36.7863 78.6426 30.5185 75.8098 24.8775 71.4033C24.4074 70.9311 24.094 70.3016 24.4074 69.6721C24.5641 69.0426 25.1909 68.5705 25.8177 68.5705H31.7721C34.4359 68.5705 37.2564 68.5705 39.9202 68.5705C43.5242 68.5705 46.0313 70.9312 46.0313 74.7082C46.0313 75.4951 46.0313 76.282 46.0313 77.0689V78.1705C46.0313 78.6426 45.8746 79.1148 45.5612 79.4295C45.4046 79.5869 45.0912 79.7443 44.6211 79.7443ZM31.1453 71.718C34.7493 73.9213 38.8234 75.3377 43.2108 76.282C43.2108 75.8098 43.2108 75.1803 43.2108 74.7082C43.2108 72.6623 42.2706 71.718 40.2336 71.718C37.5698 71.718 34.7493 71.718 32.0855 71.718H31.1453Z" fill="url(#paint3_linear_1138_2843)"/>
<path d="M69.3785 79.7443C69.0651 79.7443 68.595 79.5869 68.2816 79.4295C67.9682 79.1148 67.8115 78.6426 67.8115 78.1705C67.8115 77.6984 67.8115 77.2262 67.8115 76.7541C67.8115 75.6525 67.8115 74.5508 67.8115 73.4492C68.1249 70.7738 70.3186 68.7279 72.8258 68.7279C76.4298 68.7279 80.0337 68.7279 83.7944 68.7279C85.3614 68.7279 86.7716 68.7279 88.3386 68.7279C88.9654 68.7279 89.5922 69.2 89.7488 69.8295C89.9055 70.459 89.7488 71.0885 89.2788 71.5607C83.481 76.1246 76.8998 78.9574 69.5352 79.9016C69.5352 79.7443 69.5352 79.7443 69.3785 79.7443ZM79.5637 71.718C77.3699 71.718 75.1762 71.718 72.9825 71.718C72.0423 71.718 71.1021 72.6623 71.1021 73.6066C70.9454 74.3934 70.9454 75.3377 71.1021 76.1246C75.6463 75.3377 79.7204 73.7639 83.6377 71.5607C82.0708 71.718 80.8172 71.718 79.5637 71.718Z" fill="url(#paint4_linear_1138_2843)"/>
<path d="M56.9998 102.879C56.5297 102.879 56.2163 102.721 55.9029 102.407L53.0824 99.4164C52.769 99.1016 52.6123 98.6295 52.6123 98.3148C52.6123 97.8426 52.769 97.5279 53.2391 97.2131C55.4328 95.3246 58.41 95.3246 60.9171 97.2131C61.2305 97.5279 61.5439 97.8426 61.5439 98.3148C61.5439 98.7869 61.3872 99.259 61.0738 99.5738L58.0966 102.564C57.7832 102.721 57.3132 102.879 56.9998 102.879ZM56.8431 98.7869L56.9998 98.9443L57.1565 98.7869C57.1565 98.7869 56.9998 98.7869 56.8431 98.7869Z" fill="url(#paint5_linear_1138_2843)"/>
</g>
<defs>
<filter id="filter0_d_1138_2843" x="0" y="0" width="118" height="152" filterUnits="userSpaceOnUse" color-interpolation-filters="sRGB">
<feFlood flood-opacity="0" result="BackgroundImageFix"/>
<feColorMatrix in="SourceAlpha" type="matrix" values="0 0 0 0 0 0 0 0 0 0 0 0 0 0 0 0 0 0 127 0" result="hardAlpha"/>
<feOffset dx="2" dy="2"/>
<feGaussianBlur stdDeviation="2"/>
<feComposite in2="hardAlpha" operator="out"/>
<feColorMatrix type="matrix" values="0 0 0 0 0 0 0 0 0 0 0 0 0 0 0 0 0 0 0.25 0"/>
<feBlend mode="normal" in2="BackgroundImageFix" result="effect1_dropShadow_1138_2843"/>
<feBlend mode="normal" in="SourceGraphic" in2="effect1_dropShadow_1138_2843" result="shape"/>
</filter>
<linearGradient id="paint0_linear_1138_2843" x1="1.67595" y1="137.775" x2="119.165" y2="7.13317" gradientUnits="userSpaceOnUse">
<stop stop-color="#FF6300"/>
<stop offset="1" stop-color="#F09819"/>
</linearGradient>
<linearGradient id="paint1_linear_1138_2843" x1="-53.7761" y1="87.9049" x2="63.7125" y2="-42.7366" gradientUnits="userSpaceOnUse">
<stop stop-color="#FF6300"/>
<stop offset="1" stop-color="#F09819"/>
</linearGradient>
<linearGradient id="paint2_linear_1138_2843" x1="-3.4749" y1="133.142" x2="114.014" y2="2.50084" gradientUnits="userSpaceOnUse">
<stop stop-color="#FF6300"/>
<stop offset="1" stop-color="#F09819"/>
</linearGradient>
<linearGradient id="paint3_linear_1138_2843" x1="-11.0848" y1="126.298" x2="106.404" y2="-4.34339" gradientUnits="userSpaceOnUse">
<stop stop-color="#FF6300"/>
<stop offset="1" stop-color="#F09819"/>
</linearGradient>
<linearGradient id="paint4_linear_1138_2843" x1="11.7056" y1="146.794" x2="129.194" y2="16.1529" gradientUnits="userSpaceOnUse">
<stop stop-color="#FF6300"/>
<stop offset="1" stop-color="#F09819"/>
</linearGradient>
<linearGradient id="paint5_linear_1138_2843" x1="12.9194" y1="147.886" x2="130.408" y2="17.2445" gradientUnits="userSpaceOnUse">
<stop stop-color="#FF6300"/>
<stop offset="1" stop-color="#F09819"/>
</linearGradient>
<clipPath id="clip0_1138_2843">
<rect width="110" height="144" fill="white" transform="translate(2 2)"/>
</clipPath>
</defs>
</svg>
