<svg width="161" height="161" viewBox="0 0 161 161" fill="none" xmlns="http://www.w3.org/2000/svg">
<g clip-path="url(#clip0_1138_2857)" filter="url(#filter0_d_1138_2857)">
<path d="M77.9214 155C76.5982 154.338 76.102 153.346 76.102 151.692C76.102 147.061 76.102 142.429 76.102 137.963C42.3593 133.497 23.5031 114.641 18.8717 80.8984C17.0523 80.8984 14.902 80.8984 12.7517 80.8984C10.2706 80.8984 7.62415 80.8984 5.14307 80.8984C3.65442 80.8984 2.49658 80.4022 1.83496 79.0789C1.83496 78.7481 1.83496 78.2519 1.83496 77.9211C2.49658 76.4324 3.48901 76.1016 5.14307 76.1016C9.77442 76.1016 14.4058 76.1016 18.8717 76.1016C23.5031 42.3589 42.3593 23.5027 76.102 18.8714C76.102 18.2097 76.102 17.3827 76.102 16.3903C76.102 12.5859 76.102 8.94703 76.102 5.1427C76.102 2.99243 76.929 1.83459 78.5831 1.83459C80.0717 1.83459 81.0641 2.99243 81.0641 5.1427C81.0641 9.27784 81.0641 13.2476 81.0641 17.3827C81.0641 17.8789 81.0641 18.5405 81.0641 19.2022C96.2814 20.1946 109.514 25.8184 120.265 36.7351C131.017 47.4865 136.806 60.7189 137.633 75.9362C140.445 75.9362 143.091 75.9362 145.738 75.9362C147.557 75.9362 149.542 75.9362 151.361 75.9362C153.843 75.9362 155 76.7632 155 78.4173C155 80.0713 153.843 80.8984 151.527 80.8984C147.557 80.8984 143.422 80.8984 139.452 80.8984C138.956 80.8984 138.46 80.8984 138.129 80.8984C133.498 114.476 114.641 133.497 80.8987 137.963C80.8987 139.783 80.8987 141.768 80.8987 143.918C80.8987 146.564 80.8987 149.045 80.8987 151.692C80.8987 153.181 80.4025 154.338 79.0793 155C78.7485 155 78.2523 155 77.9214 155ZM132.505 80.8984C131.844 80.8984 131.347 80.8984 130.686 80.8984C126.551 80.8984 122.25 80.8984 118.115 80.8984C116.13 80.8984 114.807 79.2443 115.634 77.4249C116.13 76.267 117.123 75.9362 118.28 75.9362C122.415 75.9362 126.716 75.9362 130.851 75.9362C131.347 75.9362 131.844 75.9362 132.34 75.9362C131.347 46.494 105.875 24.6605 80.7333 24.4951C80.7333 24.9914 80.7333 25.4876 80.7333 26.1492C80.7333 30.1189 80.7333 34.0886 80.7333 38.0584C80.7333 40.3741 79.9063 41.3665 78.2523 41.3665C76.5982 41.3665 75.7712 40.2086 75.7712 37.893C75.7712 33.9232 75.7712 29.9535 75.7712 25.9838C75.7712 25.4876 75.7712 24.9914 75.7712 24.1643C59.8922 25.1568 46.9906 31.6076 36.7355 43.5168C28.796 52.7795 24.6609 63.6962 23.9993 75.9362C24.8263 75.9362 25.3225 75.9362 25.8187 75.9362C29.9539 75.9362 34.2544 75.9362 38.3896 75.9362C40.3744 75.9362 41.6977 77.5903 40.8706 79.4097C40.3744 80.5676 39.382 80.8984 38.2241 80.8984C34.089 80.8984 29.7885 80.8984 25.6533 80.8984C25.1571 80.8984 24.6609 80.8984 24.1647 80.8984C25.1571 110.341 50.6295 132.174 75.7712 132.339C75.7712 131.843 75.7712 131.347 75.7712 130.685C75.7712 126.716 75.7712 122.746 75.7712 118.776C75.7712 116.461 76.5982 115.468 78.2523 115.468C79.9063 115.468 80.7333 116.626 80.7333 118.942C80.7333 122.911 80.7333 126.881 80.7333 130.851C80.7333 131.347 80.7333 131.843 80.7333 132.505C108.191 132.009 131.844 108.521 132.505 80.8984Z" fill="url(#paint0_linear_1138_2857)"/>
<path d="M78.2518 105.544C63.1999 105.378 51.1253 92.973 51.2907 78.2519C51.6216 63.2 63.8616 51.1254 78.5826 51.2908C93.6345 51.4562 105.875 63.8616 105.544 78.7481C105.378 93.8 93.1383 105.875 78.2518 105.544ZM100.582 78.4173C100.582 66.1773 90.6572 56.253 78.4172 56.253C66.1772 56.253 56.4183 66.0119 56.2529 78.2519C56.0875 90.4919 66.0118 100.416 78.4172 100.582C90.6572 100.747 100.582 90.8227 100.582 78.4173Z" fill="url(#paint1_linear_1138_2857)"/>
<path d="M76.1021 80.8984C76.1021 82.387 76.1021 83.7103 76.1021 85.0335C76.1021 87.1838 76.9291 88.3416 78.5831 88.1762C80.0718 88.1762 80.8988 87.0184 80.8988 85.0335C80.8988 83.7103 80.8988 82.2216 80.8988 80.733C82.3875 80.733 83.7107 80.733 85.034 80.733C87.1842 80.733 88.3421 79.9059 88.1767 78.2519C88.1767 76.7632 87.0188 75.9362 85.034 75.9362C83.7107 75.9362 82.2221 75.9362 81.0642 75.9362C80.8988 75.6054 80.8988 75.6054 80.8988 75.44C80.8988 74.1168 80.8988 72.9589 80.8988 71.6357C80.8988 69.4854 80.0718 68.3276 78.4177 68.493C76.9291 68.493 76.1021 69.6508 76.1021 71.6357C76.1021 72.9589 76.1021 74.4476 76.1021 75.9362C74.448 75.9362 73.1248 75.9362 71.8015 75.9362C69.8167 75.9362 68.6588 76.9286 68.8242 78.4173C68.8242 79.9059 69.9821 80.733 71.8015 80.733C72.9594 80.8984 74.448 80.8984 76.1021 80.8984Z" fill="url(#paint2_linear_1138_2857)"/>
<path d="M76.1024 80.8984C74.4484 80.8984 73.1251 80.8984 71.6365 80.8984C69.817 80.8984 68.6592 80.0713 68.6592 78.5827C68.6592 77.094 69.817 76.1016 71.6365 76.1016C72.9597 76.1016 74.4484 76.1016 75.937 76.1016C75.937 74.613 75.937 73.2897 75.937 71.8011C75.937 69.8162 76.764 68.6584 78.2527 68.6584C79.9067 68.6584 80.7338 69.8162 80.7338 71.8011C80.7338 73.1243 80.7338 74.2822 80.7338 75.6054C80.7338 75.7708 80.7338 75.7708 80.8992 76.1016C82.2224 76.1016 83.5457 76.1016 84.8689 76.1016C86.8538 76.1016 88.0116 76.9286 88.0116 78.4173C88.0116 80.0713 86.8538 80.8984 84.8689 80.8984C83.5457 80.8984 82.2224 80.8984 80.7338 80.8984C80.7338 82.387 80.7338 83.7103 80.7338 85.1989C80.7338 87.1838 79.9067 88.3416 78.4181 88.3416C76.764 88.3416 75.937 87.1838 75.937 85.1989C76.1024 83.7103 76.1024 82.387 76.1024 80.8984Z" fill="url(#paint3_linear_1138_2857)"/>
</g>
<defs>
<filter id="filter0_d_1138_2857" x="0" y="0" width="161" height="161" filterUnits="userSpaceOnUse" color-interpolation-filters="sRGB">
<feFlood flood-opacity="0" result="BackgroundImageFix"/>
<feColorMatrix in="SourceAlpha" type="matrix" values="0 0 0 0 0 0 0 0 0 0 0 0 0 0 0 0 0 0 127 0" result="hardAlpha"/>
<feOffset dx="2" dy="2"/>
<feGaussianBlur stdDeviation="2"/>
<feComposite in2="hardAlpha" operator="out"/>
<feColorMatrix type="matrix" values="0 0 0 0 0 0 0 0 0 0 0 0 0 0 0 0 0 0 0.25 0"/>
<feBlend mode="normal" in2="BackgroundImageFix" result="effect1_dropShadow_1138_2857"/>
<feBlend mode="normal" in="SourceGraphic" in2="effect1_dropShadow_1138_2857" result="shape"/>
</filter>
<linearGradient id="paint0_linear_1138_2857" x1="38.943" y1="122.6" x2="117.919" y2="34.4004" gradientUnits="userSpaceOnUse">
<stop stop-color="#FF6300"/>
<stop offset="1" stop-color="#F09819"/>
</linearGradient>
<linearGradient id="paint1_linear_1138_2857" x1="60.398" y1="98.6384" x2="96.5412" y2="58.2741" gradientUnits="userSpaceOnUse">
<stop stop-color="#FF6300"/>
<stop offset="1" stop-color="#F09819"/>
</linearGradient>
<linearGradient id="paint2_linear_1138_2857" x1="73.1684" y1="84.3783" x2="83.783" y2="72.5241" gradientUnits="userSpaceOnUse">
<stop stop-color="#FF6300"/>
<stop offset="1" stop-color="#F09819"/>
</linearGradient>
<linearGradient id="paint3_linear_1138_2857" x1="73.1688" y1="84.3783" x2="83.7834" y2="72.5241" gradientUnits="userSpaceOnUse">
<stop stop-color="#FF6300"/>
<stop offset="1" stop-color="#F09819"/>
</linearGradient>
<clipPath id="clip0_1138_2857">
<rect width="153" height="153" fill="white" transform="translate(2 2)"/>
</clipPath>
</defs>
</svg>
