<svg width="153" height="153" viewBox="0 0 153 153" fill="none" xmlns="http://www.w3.org/2000/svg">
<g clip-path="url(#clip0_1138_2863)" filter="url(#filter0_d_1138_2863)">
<path d="M86.6636 115.613C86.0829 115.227 85.5021 114.84 84.9213 114.453C73.1122 106.527 61.1096 98.6 49.3005 90.6733C48.7197 90.2867 48.3325 90.0933 47.9454 89.5133C46.3966 87.9667 46.203 85.84 47.3646 84.1C48.5261 82.36 50.6556 81.78 52.5915 82.7467C53.3659 83.1333 53.9467 83.52 54.7211 83.9067C66.7237 91.8333 78.7264 99.76 90.7291 107.88C91.5034 108.267 92.0842 108.847 92.665 109.233C95.1817 106.72 97.5048 104.4 100.409 101.5C100.021 101.307 99.2471 100.92 98.8599 100.34C76.2097 78.3 54.1403 56.0667 31.8773 34.0267C31.2965 33.4467 30.7157 32.8667 30.3285 32.2867C29.167 30.5467 29.3606 28.2267 30.7157 26.8733C32.2644 25.3267 34.3939 25.1333 36.1363 26.4867C36.9106 27.0667 37.4914 27.6467 38.0722 28.2267C60.3352 50.2667 82.5982 72.5 104.668 94.7333C105.055 95.12 105.636 95.7 106.023 96.0867C108.539 93.5733 110.863 91.2533 113.379 88.74C112.024 86.6133 110.475 84.2933 108.927 81.9733C95.7624 62.2533 82.7918 42.92 69.8212 23.2C66.7237 18.3667 62.6583 15.8533 56.8506 14.8867C45.2351 12.9533 33.6196 10.8267 22.0041 8.7C15.8092 7.54 11.5502 11.9867 12.7117 18.1733C15.422 32.8667 18.1323 47.7533 20.8425 62.4467C21.4233 65.1533 19.8746 67.4733 17.3579 67.86C15.0348 68.2467 12.9053 66.7 12.5181 64.1867C10.3886 52.5867 8.2591 41.18 6.12959 29.58C5.35523 25.7133 4.58086 22.04 4.19368 18.1733C2.83854 6.76667 11.9373 -1.93333 23.1656 2.68221e-07C35.7491 2.32 48.5261 4.83333 61.1096 7.15333C67.4981 8.31333 72.5315 11.7933 76.0161 17.2067C88.5995 36.1533 101.183 54.9067 113.766 73.66C115.702 76.56 117.638 79.46 119.768 82.5533C120.349 82.1667 120.929 81.78 121.51 81.3933C124.027 79.6533 126.931 79.0733 130.028 79.6533C136.804 81.0067 143.192 89.7067 141.837 95.7C141.45 97.6333 140.095 99.5667 138.933 101.307C137.385 103.24 135.449 104.787 133.513 106.72C137.772 111.94 141.837 116.967 145.903 122.187C148.032 124.7 149.194 127.6 149.194 130.887C149.194 136.493 146.677 140.747 141.837 143.26C136.997 145.773 131.964 145.58 127.511 142.293C122.478 138.62 117.638 134.367 112.605 130.5C112.218 130.113 111.637 129.727 111.056 129.34C109.314 131.08 107.572 132.82 105.829 134.56C101.183 139.2 94.7945 139.2 90.1483 134.56C89.3739 133.787 88.406 132.82 87.6316 132.047C82.211 126.827 81.8239 121.607 86.6636 115.613ZM133.706 93.7667C133.319 92.9933 133.126 92.4133 132.738 92.0267C131.964 91.06 130.996 90.2867 130.028 89.32C128.092 87.3867 127.318 87.3867 125.188 89.32C119.187 95.3133 113.379 101.113 107.378 107.107C102.732 111.747 98.0855 116.387 93.4393 121.027C91.3098 123.153 91.3098 123.733 93.4393 125.86C94.4073 126.827 95.1817 127.6 96.1496 128.567C97.3112 129.727 98.2791 129.727 99.4407 128.567C110.475 117.547 121.51 106.527 132.545 95.5067C132.932 95.12 133.126 94.54 133.706 93.7667ZM117.057 123.347C122.091 127.407 127.318 131.467 132.545 135.527C134.481 137.073 137.578 136.3 139.127 134.367C140.676 132.433 140.869 130.113 139.127 127.987C136.997 125.087 134.674 122.38 132.351 119.48C130.609 117.353 128.867 115.227 127.124 113.1C123.833 116.387 120.542 119.867 117.057 123.347Z" fill="url(#paint0_linear_1138_2863)"/>
<path d="M106.216 34.0267C104.668 34.0267 103.506 34.0267 102.151 34.0267C99.4406 33.8333 97.6982 32.2867 97.6982 29.7733C97.6982 27.26 99.4406 25.52 102.151 25.3267C103.312 25.3267 104.668 25.3267 106.216 25.3267C106.216 23.9733 106.216 22.62 106.216 21.46C106.41 18.7533 108.152 16.82 110.475 16.82C112.992 16.82 114.541 18.56 114.734 21.46C114.734 22.62 114.734 23.78 114.734 25.3267C116.089 25.3267 117.251 25.3267 118.606 25.3267C121.316 25.52 123.252 27.0667 123.252 29.58C123.252 32.0933 121.51 33.8333 118.606 34.0267C117.445 34.0267 116.283 34.0267 114.734 34.0267C114.734 35.38 114.734 36.7333 114.734 37.8933C114.541 40.6 112.798 42.5333 110.475 42.5333C107.959 42.5333 106.41 40.7933 106.216 37.8933C106.216 36.7333 106.216 35.5733 106.216 34.0267Z" fill="url(#paint1_linear_1138_2863)"/>
<path d="M38.0719 76.56C38.0719 78.1067 38.0719 79.2667 38.0719 80.62C37.8783 83.3267 36.1359 85.26 33.8128 85.26C31.4897 85.26 29.5538 83.3267 29.5538 80.62C29.5538 79.46 29.5538 78.1067 29.5538 76.56C28.0051 76.56 26.65 76.56 25.2948 76.56C22.7781 76.3667 20.8422 74.6267 21.0358 72.3067C21.0358 69.9867 22.9717 68.2467 25.4884 68.0533C26.65 68.0533 28.0051 68.0533 29.5538 68.0533C29.5538 66.7 29.5538 65.54 29.5538 64.1867C29.7474 61.2867 31.2962 59.5467 34.0064 59.5467C36.5231 59.5467 38.0719 61.2867 38.2654 64.1867C38.2654 65.3467 38.2654 66.5067 38.2654 68.0533C39.6206 68.0533 40.7821 68.0533 41.9437 68.0533C44.8476 68.0533 46.7835 69.7933 46.7835 72.3067C46.7835 74.82 44.8476 76.56 42.1373 76.56C40.5885 76.56 39.427 76.56 38.0719 76.56Z" fill="url(#paint2_linear_1138_2863)"/>
<path d="M55.1083 119.287C56.657 119.287 58.0122 119.287 59.3673 119.287C61.884 119.48 63.8199 121.22 63.6263 123.54C63.6263 125.86 61.884 127.6 59.3673 127.6C58.0122 127.6 56.657 127.6 55.1083 127.6C55.1083 128.76 55.1083 129.92 55.1083 130.887C55.1083 134.173 53.366 136.3 50.8493 136.3C48.3326 136.3 46.5903 134.367 46.5903 131.08C46.5903 130.113 46.5903 129.147 46.5903 127.793C45.4287 127.793 44.4608 127.793 43.2992 127.793C39.8146 127.793 38.0723 126.247 38.0723 123.54C38.0723 120.833 40.0082 119.287 43.2992 119.287C44.2672 119.287 45.2351 119.287 46.5903 119.287C46.5903 117.933 46.5903 116.58 46.5903 115.227C46.5903 112.52 48.3326 110.78 50.8493 110.78C53.366 110.78 54.9147 112.52 55.1083 115.227C55.1083 116.387 55.1083 117.74 55.1083 119.287Z" fill="url(#paint3_linear_1138_2863)"/>
</g>
<defs>
<filter id="filter0_d_1138_2863" x="0" y="0" width="153" height="153" filterUnits="userSpaceOnUse" color-interpolation-filters="sRGB">
<feFlood flood-opacity="0" result="BackgroundImageFix"/>
<feColorMatrix in="SourceAlpha" type="matrix" values="0 0 0 0 0 0 0 0 0 0 0 0 0 0 0 0 0 0 127 0" result="hardAlpha"/>
<feOffset dy="4"/>
<feGaussianBlur stdDeviation="2"/>
<feComposite in2="hardAlpha" operator="out"/>
<feColorMatrix type="matrix" values="0 0 0 0 0 0 0 0 0 0 0 0 0 0 0 0 0 0 0.25 0"/>
<feBlend mode="normal" in2="BackgroundImageFix" result="effect1_dropShadow_1138_2863"/>
<feBlend mode="normal" in="SourceGraphic" in2="effect1_dropShadow_1138_2863" result="shape"/>
</filter>
<linearGradient id="paint0_linear_1138_2863" x1="2.20511" y1="144.17" x2="93.8451" y2="56.1866" gradientUnits="userSpaceOnUse">
<stop stop-color="#FF6300"/>
<stop offset="1" stop-color="#F09819"/>
</linearGradient>
<linearGradient id="paint1_linear_1138_2863" x1="-3.1414" y1="138.602" x2="88.4986" y2="50.618" gradientUnits="userSpaceOnUse">
<stop stop-color="#FF6300"/>
<stop offset="1" stop-color="#F09819"/>
</linearGradient>
<linearGradient id="paint2_linear_1138_2863" x1="-18.6156" y1="122.485" x2="73.0244" y2="34.5011" gradientUnits="userSpaceOnUse">
<stop stop-color="#FF6300"/>
<stop offset="1" stop-color="#F09819"/>
</linearGradient>
<linearGradient id="paint3_linear_1138_2863" x1="15.1483" y1="157.652" x2="106.788" y2="69.6677" gradientUnits="userSpaceOnUse">
<stop stop-color="#FF6300"/>
<stop offset="1" stop-color="#F09819"/>
</linearGradient>
<clipPath id="clip0_1138_2863">
<rect width="145" height="145" fill="white" transform="translate(4)"/>
</clipPath>
</defs>
</svg>
