<svg width="177" height="163" viewBox="0 0 177 163" fill="none" xmlns="http://www.w3.org/2000/svg">
<g filter="url(#filter0_d_1138_2814)">
<path d="M120.896 156.135C118.392 156.135 115.695 155.364 113.19 153.631C110.686 151.897 108.76 149.778 106.833 147.659C106.448 147.081 105.87 146.696 105.485 146.118C104.907 145.347 104.714 145.155 104.137 145.155C92.1931 145.155 80.2497 145.155 68.3063 145.155C67.7284 145.155 67.3431 145.347 66.7652 145.925L65.6094 147.274C63.8757 149.393 61.9493 151.319 59.8303 153.053C55.9776 155.942 51.7396 156.713 47.8869 155.557C44.0342 154.209 40.952 150.934 39.4109 146.311C39.0257 144.77 38.6404 143.421 38.4478 141.88C38.2551 140.532 38.2551 139.183 38.0625 137.835C38.0625 137.257 38.0625 136.871 38.0625 136.486V136.294C38.6404 124.35 40.952 113.755 44.6121 103.931C46.5385 98.7296 50.7765 94.8769 56.1703 93.1431C61.7567 91.2168 67.7284 91.9873 72.5443 95.0695C73.1222 95.4548 73.8928 95.6474 74.6633 95.6474C81.9835 95.6474 89.4963 95.6474 97.7796 95.6474C98.3575 95.6474 98.9354 95.4548 99.5133 95.0695C104.522 91.9873 110.494 91.2168 116.08 92.9505C121.474 94.6842 125.904 98.9222 127.831 104.316C131.491 114.14 133.61 124.543 134.188 135.33C134.38 139.761 133.802 143.614 132.647 147.081C131.106 151.319 128.023 154.209 124.363 155.365C123.208 155.942 122.052 156.135 120.896 156.135ZM104.137 142.265C105.87 142.265 106.833 143.036 107.797 143.999C108.182 144.577 108.76 144.962 109.145 145.54C110.879 147.466 112.805 149.585 114.924 151.127C117.621 153.053 120.703 153.631 123.4 152.668C126.29 151.704 128.601 149.393 129.757 146.118C130.913 143.036 131.491 139.568 131.298 135.523C130.72 125.121 128.794 114.911 125.134 105.472C123.4 100.849 119.74 97.3811 115.117 95.8401C110.301 94.299 105.292 94.8769 101.054 97.5738C100.091 98.1517 98.9354 98.5369 97.7796 98.5369C89.4963 98.5369 81.7908 98.5369 74.4707 98.5369C73.3148 98.5369 71.9664 98.1517 71.0032 97.5738C66.7652 95.0695 61.7567 94.4916 56.9408 96.0327C52.3175 97.5738 48.8501 100.849 47.1164 105.279C43.4563 114.718 41.3373 124.928 40.7594 136.486C40.7594 136.871 40.7594 137.449 40.7594 137.835C40.7594 138.99 40.952 140.339 41.1447 141.687C41.3373 142.843 41.5299 144.192 41.9152 145.54C43.071 149.393 45.3827 151.897 48.4648 152.86C51.547 153.823 54.8218 153.053 57.904 150.741C59.8303 149.2 61.5641 147.274 63.2978 145.347L64.4536 144.192C65.2241 143.228 66.38 142.458 68.1137 142.458C80.2497 142.265 92.1931 142.265 104.137 142.265ZM107.604 130.707C104.907 130.707 102.595 128.588 102.595 125.891C102.595 124.543 103.173 123.194 104.137 122.231C105.1 121.268 106.448 120.69 107.797 120.69C110.494 120.69 112.805 123.002 112.805 125.699C112.805 127.047 112.227 128.395 111.457 129.359C110.301 130.322 109.145 130.707 107.604 130.707ZM107.604 127.818C108.182 127.818 108.76 127.625 109.145 127.24C109.53 126.854 109.723 126.276 109.723 125.699C109.723 124.543 108.76 123.58 107.604 123.58C107.026 123.58 106.448 123.772 106.063 124.157C105.678 124.543 105.485 125.121 105.485 125.699C105.485 127.047 106.448 127.818 107.604 127.818ZM64.6462 130.707C61.7567 130.707 59.8303 128.588 59.6377 125.506C59.6377 124.928 59.6377 124.158 59.6377 123.58C58.8672 123.58 58.2893 123.58 57.5187 123.58C54.6292 123.387 52.5102 121.461 52.5102 118.571C52.5102 115.874 54.6292 113.755 57.5187 113.563C58.2893 113.563 58.8672 113.563 59.6377 113.563C59.6377 112.792 59.6377 112.214 59.6377 111.636C59.8303 108.554 61.9493 106.435 64.6462 106.435C67.5358 106.435 69.4621 108.554 69.6548 111.636C69.6548 112.214 69.6548 112.985 69.6548 113.563C70.2327 113.563 70.8106 113.563 71.3885 113.563C74.6633 113.563 76.7823 115.682 76.7823 118.571C76.7823 121.461 74.4707 123.387 71.1959 123.58C70.6179 123.58 70.2327 123.58 69.6548 123.58C69.6548 124.35 69.6548 124.928 69.6548 125.699C69.4621 128.781 67.5358 130.707 64.6462 130.707ZM60.9862 120.69C61.7567 120.69 62.5272 121.268 62.5272 122.231V123.387C62.5272 124.157 62.5272 124.735 62.5272 125.506C62.5272 126.277 62.9125 127.818 64.6462 127.818C65.9947 127.818 66.7652 126.854 66.7652 125.506C66.7652 124.735 66.7652 124.157 66.7652 123.387V122.231C66.7652 121.461 67.3431 120.69 68.3063 120.69H69.4621C70.2327 120.69 70.8106 120.69 71.3885 120.69C71.9664 120.69 74.0854 120.497 74.0854 118.571C74.0854 116.645 72.159 116.452 71.5811 116.452C71.0032 116.452 70.2327 116.452 69.4621 116.452H68.3063C67.5358 116.452 66.7652 115.874 66.7652 115.104V113.948C66.7652 113.177 66.7652 112.599 66.7652 111.829C66.7652 110.288 65.802 109.325 64.6462 109.325C63.4904 109.325 62.5272 110.288 62.5272 111.829C62.5272 112.599 62.5272 113.177 62.5272 113.948V115.104C62.5272 115.874 61.9493 116.452 60.9862 116.452H59.8303C59.0598 116.452 58.2893 116.452 57.5187 116.452C56.1703 116.452 55.2071 117.415 55.2071 118.571C55.2071 119.727 56.1703 120.69 57.5187 120.69C58.2893 120.69 59.0598 120.69 59.8303 120.69H60.9862ZM114.924 123.58C113.576 123.58 112.42 123.002 111.457 122.039C110.494 121.075 109.916 119.727 109.916 118.378C109.916 115.682 112.227 113.563 114.924 113.563C117.621 113.563 119.933 115.682 119.933 118.378C119.933 119.727 119.547 121.075 118.584 122.039C117.428 123.194 116.273 123.58 114.924 123.58ZM114.924 116.452C113.768 116.452 112.805 117.223 112.805 118.571C112.805 119.149 112.998 119.727 113.383 120.112C113.768 120.497 114.346 120.69 114.924 120.69C115.502 120.69 116.08 120.497 116.465 120.112C116.851 119.727 117.043 119.149 117.043 118.571C117.043 117.415 116.08 116.452 114.924 116.452ZM100.476 123.58C99.128 123.58 97.7796 123.002 96.8164 122.039C95.8532 121.075 95.2753 119.727 95.468 118.378C95.468 115.682 97.7796 113.563 100.476 113.563C103.366 113.563 105.485 115.682 105.485 118.378C105.485 119.727 104.907 121.075 103.944 122.039C103.173 123.194 101.825 123.58 100.476 123.58ZM100.476 116.452C99.3207 116.452 98.3575 117.415 98.3575 118.571C98.3575 119.149 98.5501 119.727 98.9354 120.112C99.3207 120.497 99.8986 120.69 100.476 120.69C101.054 120.69 101.632 120.497 102.018 120.112C102.403 119.727 102.595 119.149 102.595 118.571C102.595 117.415 101.632 116.452 100.476 116.452ZM107.797 116.452C107.604 116.452 107.604 116.452 107.797 116.452C104.907 116.452 102.788 114.14 102.788 111.444C102.788 110.095 103.366 108.747 104.329 107.783C105.292 106.82 106.641 106.242 107.989 106.242C110.686 106.242 112.998 108.554 112.998 111.251C112.998 112.599 112.42 113.948 111.457 114.911C110.301 115.874 108.952 116.452 107.797 116.452ZM107.797 109.325C107.219 109.325 106.641 109.517 106.256 109.902C105.87 110.288 105.678 110.866 105.678 111.444C105.678 112.599 106.641 113.563 107.797 113.563C108.375 113.563 108.952 113.37 109.338 112.985C109.723 112.599 109.916 112.021 109.916 111.444C109.916 110.288 108.76 109.325 107.797 109.325Z" fill="url(#paint0_linear_1138_2814)"/>
<path d="M148.251 120.112C147.287 120.112 146.132 120.112 145.168 120.112C143.049 120.112 141.123 120.112 139.004 120.112C136.885 120.112 136.5 118.571 136.307 117.8C135.344 114.14 134.188 110.288 133.032 106.628L131.684 102.197C131.491 101.812 131.491 101.234 131.491 100.848C131.491 97.959 131.491 95.262 131.491 92.3725V90.0609C131.491 89.6756 131.684 89.2903 131.876 89.0977C132.069 88.9051 132.454 88.7124 133.032 88.7124C138.426 88.9051 142.471 87.364 145.746 83.7039C148.828 80.2365 149.792 76.1911 149.214 69.8341C149.214 69.4489 149.406 68.8709 149.792 68.6783C150.177 68.293 150.755 68.293 151.14 68.4857C157.882 70.6047 162.698 74.4574 166.358 80.0438C168.863 84.0892 170.211 88.5198 170.211 93.1431V95.0694C170.211 98.5369 170.211 102.004 170.211 105.472C170.018 113.562 163.469 120.112 155.185 120.305C152.874 120.112 150.562 120.112 148.251 120.112ZM141.123 117.223C142.471 117.223 143.82 117.223 144.976 117.223C148.251 117.223 151.718 117.223 154.993 117.223C161.542 117.03 166.936 111.636 167.129 105.086C167.321 101.619 167.129 98.1516 167.129 94.8768V92.9504C167.129 88.9051 165.973 84.8597 163.661 81.1996C160.964 76.769 157.112 73.4942 152.103 71.5679C152.296 75.9985 151.525 81.007 147.673 85.4376C144.205 89.2903 139.582 91.4093 134.188 91.4093V92.3725C134.188 95.262 134.188 97.959 134.188 100.848C134.188 100.848 134.188 101.041 134.381 101.234L135.729 105.857C136.885 109.517 137.848 113.37 139.004 117.03V117.223C139.775 117.223 140.545 117.223 141.123 117.223Z" fill="url(#paint1_linear_1138_2814)"/>
<path d="M33.2467 120.112C33.0541 120.112 33.0541 120.112 33.2467 120.112C30.9351 120.112 28.8161 120.112 26.5044 120.112C23.6149 120.112 20.5327 120.112 17.6432 120.112C8.97459 119.92 2.23234 113.37 2.23234 104.701V102.197C2.23234 97.7665 2.03971 93.1432 2.81025 88.9052C4.35133 79.4661 10.1304 72.5312 19.5696 68.6785C19.9548 68.4858 20.1475 68.4858 20.5327 68.2932L21.1106 68.1005C21.4959 67.9079 22.0738 68.1005 22.4591 68.2932C22.8444 68.6784 23.037 69.0637 23.037 69.449C22.6517 75.806 23.6149 80.044 26.6971 83.3188C29.9719 86.9789 34.2099 88.7126 39.411 88.3273C39.7963 88.3273 40.1816 88.5199 40.5669 88.7126C40.9521 88.9052 40.9521 89.2905 40.9521 89.6758V91.9874C40.9521 94.8769 40.9521 97.7665 40.9521 100.463C40.9521 101.041 40.7595 101.427 40.7595 101.619L39.411 105.857C38.2552 109.71 37.2921 113.37 36.1362 117.223C35.751 118.764 35.1731 120.112 33.2467 120.112ZM29.394 117.223C30.5498 117.223 31.8983 117.223 33.0541 117.223C33.0541 117.223 33.0541 117.223 33.2467 117.223C33.2467 117.223 33.2467 117.03 33.4393 116.837C34.4025 112.985 35.5583 109.325 36.7141 105.472L37.87 101.234C37.87 100.849 38.0626 100.656 38.0626 100.656C38.0626 97.7665 38.0626 95.0696 38.0626 92.18V91.2168C32.6688 91.2168 28.0455 89.0978 24.5781 85.2451C20.7254 81.0071 20.1475 75.806 20.1475 71.3754C11.8641 74.8428 7.04824 80.8145 5.69979 89.0978C4.92924 93.3358 5.12188 97.7664 5.12188 102.004V104.509C5.12188 111.444 10.7083 117.03 17.8358 117.03C20.7254 117.03 23.6149 117.03 26.5044 117.03C27.4676 117.223 28.4308 117.223 29.394 117.223Z" fill="url(#paint2_linear_1138_2814)"/>
<path d="M108.182 37.4714H107.989C98.743 37.0861 89.8817 34.7745 81.5984 30.1512C80.0573 29.3807 78.5162 28.4175 76.9751 27.2617C76.0119 26.6838 75.2414 26.4912 74.0856 27.0691C69.4623 28.9954 65.417 32.0776 62.1422 36.3156C61.7569 36.7009 61.3716 36.8935 60.7937 36.8935C60.2158 36.8935 59.8305 36.5082 59.6379 35.9303C56.3631 27.8396 57.7115 19.5563 62.9127 14.5477C66.5728 11.2729 71.5813 7.03494 77.553 4.33804C88.5333 -0.47785 102.018 2.98959 109.531 12.2361C113.191 16.8594 114.346 22.2532 112.998 29.1881C112.805 30.3439 112.42 31.4997 112.035 32.6555C111.842 33.426 111.65 34.004 111.457 34.7745C110.879 36.7009 109.916 37.4714 108.182 37.4714ZM75.2414 23.9869C76.3972 23.9869 77.3604 24.3722 78.5162 24.9501C80.0573 25.9132 81.5984 26.8764 82.9468 27.647C90.6522 31.885 99.1282 34.1966 107.989 34.5819C108.375 34.5819 108.567 34.5819 108.567 34.5819C108.567 34.5819 108.567 34.5819 108.76 34.3892C108.953 33.6187 109.145 32.8481 109.338 32.0776C109.723 30.9218 109.916 29.9586 110.301 28.8028C111.457 22.6384 110.686 18.0152 107.412 14.1625C100.669 5.68649 88.5333 2.79696 78.9015 7.03494C73.315 9.53921 68.4991 13.5846 65.0317 16.6667C60.9863 20.3268 59.8305 26.2985 61.5642 32.4629C64.8391 28.8028 68.4991 26.1059 72.9298 24.3722C73.7003 24.1795 74.4708 23.9869 75.2414 23.9869Z" fill="url(#paint3_linear_1138_2814)"/>
<path d="M86.6055 69.8343C84.4865 69.8343 82.1749 69.449 79.6706 68.8711C79.2853 68.8711 79.0927 68.6785 78.7074 68.4859C72.1578 65.0184 62.526 55.7719 63.1039 44.7917C63.1039 44.2138 63.2966 43.2506 63.4892 42.48C65.6082 37.8568 68.883 34.3893 73.121 32.0777C73.8915 31.6924 75.24 31.4998 76.2032 32.0777C85.6423 37.8568 96.0447 41.1316 106.832 41.5169C107.025 41.5169 107.218 41.5169 107.603 41.7095H107.988C108.566 41.9021 109.144 42.48 109.144 43.0579C109.529 49.9928 107.218 55.9645 102.787 60.7804C102.209 61.3583 101.631 61.9362 101.053 62.5142C100.475 63.0921 100.09 63.4773 99.5121 64.0552C95.852 68.1006 91.614 69.8343 86.6055 69.8343ZM74.8547 34.7746H74.6621C71.002 36.701 68.1125 39.7831 66.3788 43.6358C66.1861 44.0211 66.1861 44.599 66.1861 44.9843C65.6082 54.6161 74.4695 62.8994 80.2485 65.9816H80.4412C87.7613 68.1006 93.1551 66.7521 97.3931 62.3215C97.971 61.7436 98.3563 61.1657 98.9342 60.7804C99.5121 60.2025 100.09 59.6246 100.668 59.0467C104.521 55.0014 106.447 50.1855 106.254 44.599C95.0815 44.0211 84.4865 40.7463 74.8547 34.7746Z" fill="url(#paint4_linear_1138_2814)"/>
<path d="M154.8 41.1314C154.415 41.1314 154.03 41.1314 153.644 41.1314H152.489C143.242 40.7462 134.766 37.8566 127.061 32.4628C126.098 31.6923 125.134 31.6923 124.171 32.0775C123.786 32.2702 123.401 32.4628 123.015 32.4628C122.437 32.6555 122.052 32.8481 121.474 33.0407C120.896 33.2334 120.318 33.6186 119.741 33.8113L119.163 34.1965C118.777 34.3892 118.2 34.3892 117.814 34.0039C117.429 33.8113 117.236 33.2334 117.236 32.6555C117.236 31.6923 117.429 30.7291 117.429 29.5733C117.622 27.2616 117.814 24.7574 117.622 22.4458C117.429 19.7489 118.007 17.8225 120.511 15.8961C126.483 11.2729 132.455 9.15389 138.812 9.53916C146.132 10.1171 152.103 13.3919 156.534 19.5562C159.809 24.1795 160.579 29.7659 158.46 36.7008C158.268 37.0861 158.268 37.664 158.075 37.8566C157.497 40.5535 156.919 41.1314 154.8 41.1314ZM125.327 28.8027C126.483 28.8027 127.639 29.188 128.794 29.9586C135.922 34.9671 144.013 37.664 152.681 38.0493H153.837C154.222 38.0493 154.8 38.0493 154.993 38.0493C154.993 37.8566 155.186 37.4713 155.186 37.0861C155.186 36.7008 155.378 36.3155 155.571 35.7376C157.305 29.5733 156.919 24.95 154.03 21.0973C150.177 15.7035 144.976 12.814 138.426 12.4287C132.647 12.0434 127.446 13.7771 122.052 18.0151C120.511 19.3636 120.319 20.1341 120.319 22.2531C120.511 24.7574 120.319 27.2616 119.933 29.5733C119.933 29.7659 119.933 29.9585 119.933 30.1512C119.933 30.1512 119.933 30.1512 120.126 30.1512C120.704 29.9585 121.282 29.7659 121.86 29.5733C122.245 29.3806 122.63 29.3806 123.015 29.188C123.979 28.9954 124.556 28.8027 125.327 28.8027Z" fill="url(#paint5_linear_1138_2814)"/>
<path d="M37.8705 69.8341C36.5221 69.8341 34.981 69.6414 33.4399 69.4488C32.2841 69.2562 30.743 68.8709 29.5872 68.1004C24.5786 64.6329 18.6069 59.6244 16.6806 51.1484C15.91 48.0662 16.4879 45.3693 18.2217 43.2503C19.3775 41.9019 20.5333 40.3608 21.8817 39.205C25.7345 35.9302 27.0829 35.9302 31.3209 38.4345C38.8337 42.6724 46.9244 44.9841 55.593 45.3693C55.9783 45.3693 56.3635 45.3693 56.7488 45.3693C57.1341 45.3693 57.5194 45.562 57.5194 45.7546C57.9046 45.9472 58.2899 46.5252 58.2899 47.1031C58.2899 52.3042 56.5562 57.1201 53.0887 60.9728C52.5108 61.5507 51.9329 62.1287 51.355 62.7066C50.7771 63.2845 50.3918 63.6697 49.8139 64.2476C46.9244 68.1004 42.879 69.8341 37.8705 69.8341ZM27.0829 39.5903C26.3124 39.5903 25.5418 40.1682 24.0007 41.5166C22.8449 42.4798 21.6891 43.8283 20.7259 45.1767C19.5701 46.7178 19.1848 48.4515 19.7627 50.5705C21.3038 57.8907 26.505 62.3213 31.3209 65.5961C31.8988 65.9814 32.862 66.3666 34.0178 66.5593C40.1821 67.7151 44.6128 66.3666 48.0802 62.5139C48.6581 61.936 49.236 61.3581 49.8139 60.7802C50.3918 60.2023 50.9697 59.6244 51.355 59.0465C54.0519 55.9643 55.593 52.3042 55.9783 48.2589C46.9244 47.8736 38.2558 45.3693 30.3577 40.9387C28.8166 40.1682 27.8534 39.5903 27.0829 39.5903Z" fill="url(#paint6_linear_1138_2814)"/>
<path d="M134.573 70.0267C130.72 70.0267 126.867 68.8709 123.978 66.3667C120.51 63.2845 116.465 59.6244 114.731 54.4232L114.538 53.6527C113.768 51.1484 112.805 48.2589 114.346 45.3694C116.465 41.324 119.547 38.4345 123.785 36.7008C124.555 36.3155 125.519 36.5081 126.289 36.8934C134.765 42.2872 144.012 44.9841 154.607 45.3694C155.377 45.3694 155.955 45.9473 155.955 46.9105C155.955 52.4969 154.029 57.1202 150.561 61.1655C149.213 62.7066 147.479 64.4403 145.745 65.9814C142.663 68.6783 138.618 70.0267 134.573 70.0267ZM124.555 39.3977C121.088 40.7461 118.584 43.2504 116.85 46.5252C115.887 48.4515 116.465 50.3779 117.235 52.6895L117.428 53.4601C118.969 57.8907 122.436 61.1655 125.904 64.055C130.527 68.1004 139.003 68.1004 143.626 63.6698C145.167 62.1287 146.709 60.5876 148.25 59.0465C151.139 55.9643 152.488 52.3043 152.873 48.0663C142.471 47.681 133.224 44.7915 124.555 39.3977Z" fill="url(#paint7_linear_1138_2814)"/>
<path d="M54.6281 41.1315H54.4355C53.2796 40.9389 52.3165 40.7462 51.3533 40.5536C49.0416 40.1683 46.9227 39.783 44.9963 39.2051C39.9878 37.8567 35.1719 35.7377 30.7412 32.4629C29.5854 31.4997 28.4296 31.4997 27.0812 31.885C23.2285 33.2334 19.9536 35.3524 17.0641 38.242C16.6788 38.6272 16.2936 38.8199 15.7157 38.6272C15.3304 38.6272 14.7525 38.242 14.5598 37.8567C11.8629 31.6923 13.0188 24.1795 17.4494 20.5195L18.2199 19.9416C22.4579 16.4741 26.6959 12.814 32.0897 10.8877C40.373 7.99814 48.2711 9.34659 55.5913 15.1257C56.1692 15.5109 56.3618 16.2815 55.9765 16.8594C52.8944 23.6016 52.8944 30.7292 56.1692 39.0125C56.3618 39.5904 56.1692 39.9757 55.9765 40.5536C55.3986 40.9389 55.0134 41.1315 54.6281 41.1315ZM28.237 28.8028C29.5854 28.8028 30.9339 29.1881 32.0897 30.1513C36.135 33.0408 40.7583 35.1598 45.3816 36.3156C47.3079 36.8935 49.4269 37.2788 51.5459 37.664C51.7385 37.664 51.9312 37.664 52.1238 37.8567C49.6196 30.1513 49.8122 23.409 52.5091 16.8594C46.1521 12.2361 39.7951 11.2729 32.6676 13.5846C27.6591 15.3183 23.6137 18.7857 19.5684 22.0606L18.7978 22.6385C15.9083 25.1427 14.7525 30.1513 16.1009 34.5819C18.7978 32.0776 22.0726 30.3439 25.5401 28.9954C26.6959 28.9954 27.4664 28.8028 28.237 28.8028Z" fill="url(#paint8_linear_1138_2814)"/>
<path d="M47.1166 92.9504C46.7314 92.9504 46.5387 92.9504 46.3461 92.7578C45.9608 92.5651 45.7682 92.1798 45.7682 91.6019C45.3829 79.8512 55.7852 67.1372 68.1139 64.6329C68.4992 64.6329 69.0771 64.6329 69.2697 64.8256C69.655 65.0182 69.8477 65.5961 69.8477 65.9814V67.9077C69.8477 69.2562 69.8477 70.6046 69.8477 71.9531C70.0403 80.2364 75.0488 86.4008 83.1395 88.3271C83.5248 88.3271 84.1027 88.5198 84.6806 89.2903C84.8732 89.6756 85.0659 90.2535 84.6806 90.8314C84.2953 91.4093 83.9101 91.6019 83.3322 91.6019H81.5984C79.6721 91.6019 77.7457 91.6019 75.8194 91.6019C75.0488 91.6019 74.4709 91.2167 74.0856 91.024C65.0318 86.4008 56.5558 86.9787 48.2724 92.7578C48.0798 92.9504 47.8872 92.9504 47.6945 92.9504C47.3093 92.7578 47.3093 92.9504 47.1166 92.9504ZM66.7655 67.7151C57.519 70.6046 49.6209 79.6585 48.6577 88.7124C57.1337 83.7039 66.1876 83.5112 75.2415 88.1345C75.4341 88.1345 75.6267 88.3271 75.6267 88.3271H75.8194C70.0403 84.8597 66.7655 78.888 66.5728 71.7605C66.7655 70.6046 66.7655 69.2562 66.7655 67.7151Z" fill="url(#paint9_linear_1138_2814)"/>
<path d="M125.52 92.9505C125.328 92.9505 124.942 92.9504 124.75 92.7578L124.364 92.5652C123.979 92.3725 123.787 92.1799 123.594 91.9873C115.696 86.7861 107.99 86.2082 99.7071 90.2535C97.9734 91.0241 96.2396 91.4094 94.5059 91.4094C93.3501 91.4094 92.3869 91.4094 91.2311 91.4094C90.6532 91.4094 90.0753 91.4094 89.4974 91.4094C89.1121 91.4094 88.7269 91.2167 88.7269 91.2167C88.1489 91.0241 87.7637 90.4462 87.7637 89.6756C87.7637 88.9051 88.1489 88.5198 88.7269 88.3272C99.3218 85.6303 103.752 78.5028 102.597 65.9814C102.597 65.5962 102.789 65.0183 102.982 64.8256C103.367 64.4404 103.752 64.4404 104.138 64.4404C115.888 66.3667 127.061 79.6586 126.869 91.602C126.869 92.1799 126.483 92.5652 126.098 92.7578C125.906 92.9504 125.713 92.9505 125.52 92.9505ZM110.109 84.8597C114.733 84.8597 119.356 86.2082 123.787 88.9051C122.438 79.8512 114.155 70.2194 105.486 67.7152C106.064 77.5396 103.175 84.2818 96.6249 88.3272C97.2028 88.1346 97.7807 87.9419 98.3586 87.7493C102.211 85.8229 106.257 84.8597 110.109 84.8597Z" fill="url(#paint10_linear_1138_2814)"/>
<path d="M86.0291 84.2819C83.1396 84.2819 80.0574 83.1261 77.7458 80.8144C75.6268 78.6954 74.2783 76.1912 74.2783 73.6869C74.2783 73.3016 74.471 72.7237 74.8562 72.5311C75.2415 72.3385 75.8194 72.1458 76.2047 72.3385C83.5248 74.8427 88.1481 74.8427 95.8535 72.3385C96.2388 72.1458 96.6241 72.3385 97.0093 72.5311C97.3946 72.7237 97.5872 73.109 97.5872 73.4943C97.7799 75.4206 97.202 77.5396 95.6609 79.466C93.3493 82.1629 89.8818 84.0892 86.4144 84.2819C86.4144 84.2819 86.2217 84.2819 86.0291 84.2819ZM77.7458 75.8059C78.131 76.7691 78.9016 77.9249 79.8648 78.6954C81.7911 80.4292 84.2954 81.3923 86.607 81.3923C89.1113 81.1997 92.0008 79.8513 93.7345 77.7323C94.3124 77.1544 94.6977 76.3838 94.8903 75.8059C88.3407 77.5396 83.7175 77.5396 77.7458 75.8059Z" fill="url(#paint11_linear_1138_2814)"/>
<path d="M37.6775 84.2818C35.7511 84.2818 33.8248 83.7039 32.091 82.5481C29.2015 80.6217 27.4678 77.5395 27.4678 74.0721C27.4678 73.6868 27.6604 73.1089 28.0457 72.9163C28.431 72.7236 29.0089 72.531 29.3941 72.7236C33.8248 74.2647 38.448 74.4574 44.2271 73.4942C44.805 73.4942 45.3829 73.6868 45.5755 74.0721C45.7682 74.4574 45.9608 75.0353 45.7682 75.6132L44.9976 77.3469C44.2271 79.0806 43.4565 80.6217 42.8786 82.3554C42.4934 83.3186 41.5302 83.7039 41.1449 83.8965C39.9891 83.8965 38.8333 84.2818 37.6775 84.2818ZM30.5499 76.1911C31.1279 77.7322 32.091 79.0806 33.6321 80.0438C35.5585 81.3922 37.8701 81.5849 39.9891 80.8143C40.1817 80.8143 40.1817 80.6217 40.1817 80.6217C40.7596 79.2733 41.3375 77.9248 41.9155 76.5764C37.8701 77.1543 34.21 77.1543 30.5499 76.1911Z" fill="url(#paint12_linear_1138_2814)"/>
<path d="M134.572 84.282C133.223 84.282 132.067 84.0893 130.912 83.5114C130.334 83.1262 129.756 82.7409 129.371 81.9703C128.6 80.2366 127.829 78.5029 127.059 76.9618L126.481 75.4207C126.288 74.8428 126.288 74.2649 126.674 73.8796C127.059 73.4944 127.637 73.3017 128.022 73.3017C133.801 74.4575 138.424 74.2649 142.855 72.7238C143.24 72.5312 143.818 72.5312 144.204 72.9165C144.589 73.1091 144.781 73.4944 144.781 74.0723C144.974 77.3471 143.24 80.4293 140.351 82.5482C138.617 83.7041 136.498 84.282 134.572 84.282ZM130.141 76.7692C130.719 78.1176 131.297 79.4661 131.875 80.8145C133.994 81.7777 136.498 81.5851 138.617 80.044C140.158 79.0808 141.121 77.7324 141.507 76.1913C138.232 77.1544 134.379 77.1544 130.141 76.7692Z" fill="url(#paint13_linear_1138_2814)"/>
</g>
<defs>
<filter id="filter0_d_1138_2814" x="0.210938" y="0.172119" width="176" height="161.963" filterUnits="userSpaceOnUse" color-interpolation-filters="sRGB">
<feFlood flood-opacity="0" result="BackgroundImageFix"/>
<feColorMatrix in="SourceAlpha" type="matrix" values="0 0 0 0 0 0 0 0 0 0 0 0 0 0 0 0 0 0 127 0" result="hardAlpha"/>
<feOffset dx="2" dy="2"/>
<feGaussianBlur stdDeviation="2"/>
<feComposite in2="hardAlpha" operator="out"/>
<feColorMatrix type="matrix" values="0 0 0 0 0 0 0 0 0 0 0 0 0 0 0 0 0 0 0.25 0"/>
<feBlend mode="normal" in2="BackgroundImageFix" result="effect1_dropShadow_1138_2814"/>
<feBlend mode="normal" in="SourceGraphic" in2="effect1_dropShadow_1138_2814" result="shape"/>
</filter>
<linearGradient id="paint0_linear_1138_2814" x1="37.1207" y1="174.296" x2="181.888" y2="36.8721" gradientUnits="userSpaceOnUse">
<stop stop-color="#FF6300"/>
<stop offset="1" stop-color="#F09819"/>
</linearGradient>
<linearGradient id="paint1_linear_1138_2814" x1="53.1245" y1="191.155" x2="197.892" y2="53.7307" gradientUnits="userSpaceOnUse">
<stop stop-color="#FF6300"/>
<stop offset="1" stop-color="#F09819"/>
</linearGradient>
<linearGradient id="paint2_linear_1138_2814" x1="-8.39518" y1="126.348" x2="136.372" y2="-11.0759" gradientUnits="userSpaceOnUse">
<stop stop-color="#FF6300"/>
<stop offset="1" stop-color="#F09819"/>
</linearGradient>
<linearGradient id="paint3_linear_1138_2814" x1="-13.5585" y1="120.909" x2="131.209" y2="-16.5153" gradientUnits="userSpaceOnUse">
<stop stop-color="#FF6300"/>
<stop offset="1" stop-color="#F09819"/>
</linearGradient>
<linearGradient id="paint4_linear_1138_2814" x1="-2.74781" y1="132.299" x2="142.019" y2="-5.12543" gradientUnits="userSpaceOnUse">
<stop stop-color="#FF6300"/>
<stop offset="1" stop-color="#F09819"/>
</linearGradient>
<linearGradient id="paint5_linear_1138_2814" x1="12.3279" y1="148.178" x2="157.095" y2="10.7537" gradientUnits="userSpaceOnUse">
<stop stop-color="#FF6300"/>
<stop offset="1" stop-color="#F09819"/>
</linearGradient>
<linearGradient id="paint6_linear_1138_2814" x1="-24.437" y1="109.448" x2="120.33" y2="-27.9756" gradientUnits="userSpaceOnUse">
<stop stop-color="#FF6300"/>
<stop offset="1" stop-color="#F09819"/>
</linearGradient>
<linearGradient id="paint7_linear_1138_2814" x1="21.4938" y1="157.835" x2="166.261" y2="20.4105" gradientUnits="userSpaceOnUse">
<stop stop-color="#FF6300"/>
<stop offset="1" stop-color="#F09819"/>
</linearGradient>
<linearGradient id="paint8_linear_1138_2814" x1="-34.9034" y1="98.4245" x2="109.864" y2="-38.9994" gradientUnits="userSpaceOnUse">
<stop stop-color="#FF6300"/>
<stop offset="1" stop-color="#F09819"/>
</linearGradient>
<linearGradient id="paint9_linear_1138_2814" x1="6.00681" y1="141.519" x2="150.774" y2="4.09522" gradientUnits="userSpaceOnUse">
<stop stop-color="#FF6300"/>
<stop offset="1" stop-color="#F09819"/>
</linearGradient>
<linearGradient id="paint10_linear_1138_2814" x1="26.1593" y1="162.748" x2="170.926" y2="25.3237" gradientUnits="userSpaceOnUse">
<stop stop-color="#FF6300"/>
<stop offset="1" stop-color="#F09819"/>
</linearGradient>
<linearGradient id="paint11_linear_1138_2814" x1="10.9085" y1="146.683" x2="155.676" y2="9.25895" gradientUnits="userSpaceOnUse">
<stop stop-color="#FF6300"/>
<stop offset="1" stop-color="#F09819"/>
</linearGradient>
<linearGradient id="paint12_linear_1138_2814" x1="-11.9815" y1="122.57" x2="132.786" y2="-14.8542" gradientUnits="userSpaceOnUse">
<stop stop-color="#FF6300"/>
<stop offset="1" stop-color="#F09819"/>
</linearGradient>
<linearGradient id="paint13_linear_1138_2814" x1="34.8681" y1="171.925" x2="179.635" y2="34.5005" gradientUnits="userSpaceOnUse">
<stop stop-color="#FF6300"/>
<stop offset="1" stop-color="#F09819"/>
</linearGradient>
</defs>
</svg>
