<svg width="160" height="160" viewBox="0 0 160 160" fill="none" xmlns="http://www.w3.org/2000/svg">
<g clip-path="url(#clip0_1138_2768)" filter="url(#filter0_d_1138_2768)">
<path d="M35.0379 151.142C34.7925 151.142 34.4245 151.019 34.1791 150.774C33.9337 150.529 33.8111 150.161 33.8111 149.916V141.703C33.8111 136.677 33.8111 131.774 33.8111 126.748C33.8111 118.045 27.9224 112.161 19.2122 112.161H11.1153H6.94424C6.5762 112.161 6.20816 112.039 6.08548 111.794C5.84012 111.548 5.71744 111.181 5.84012 110.813L8.04835 92.3032C8.41639 88.871 8.90711 85.3161 9.27515 81.8839C10.1339 74.4065 11.1153 66.8064 11.8514 59.2065C13.2009 44.8645 24.1194 34.9355 38.3502 34.9355C65.9531 34.9355 93.6787 34.9355 121.282 34.9355C135.635 34.9355 146.676 44.9871 148.271 59.4516C149.13 68.2774 150.234 77.2258 151.338 85.929C151.829 89.9742 152.32 93.8968 152.81 97.9419C153.178 100.761 153.424 103.458 153.792 106.277L154.282 110.813C154.282 111.181 154.16 111.548 154.037 111.794C153.914 112.039 153.424 112.161 153.178 112.161H149.498C146.554 112.161 143.609 112.161 140.665 112.161C138.947 112.161 137.598 112.284 136.494 112.652C130.36 114.123 126.189 119.394 126.189 125.768C126.189 131.039 126.189 136.31 126.189 141.458C126.189 143.665 126.189 145.871 126.189 148.2V149.916C126.189 150.284 126.066 150.529 125.821 150.774C125.575 151.019 125.33 151.142 124.962 151.142C115.761 150.897 105.579 139.865 104.352 128.71C104.352 128.342 104.475 128.097 104.597 127.729C104.843 127.484 105.088 127.361 105.456 127.239C111.835 126.871 117.601 124.052 121.404 119.271C125.207 114.613 126.802 108.484 125.943 102.477C124.226 91.6903 113.675 83.6 102.757 84.8258C96.9911 85.4387 91.3478 88.7484 87.9128 93.529C84.355 98.3097 83.0056 104.439 84.2324 110.568C84.355 110.935 84.2324 111.303 83.987 111.548C83.7416 111.794 83.3736 112.039 83.0056 112.039H76.9943C76.6262 112.039 76.2582 111.916 76.0128 111.548C75.7675 111.303 75.6448 110.935 75.7675 110.568C77.117 103.213 75.3994 96.8387 70.4923 91.4452C66.8119 87.4 61.9047 85.071 56.1387 84.7032C45.2203 83.9677 35.4059 92.1806 33.9337 103.335C33.1977 108.974 34.9152 114.858 38.7182 119.394C42.644 124.052 48.1646 126.871 54.5439 127.116C54.912 127.116 55.1573 127.239 55.4027 127.606C55.648 127.852 55.7707 128.219 55.648 128.587C54.1759 139.742 44.8522 150.039 35.2832 151.019C35.1605 151.142 35.1605 151.142 35.0379 151.142ZM106.928 129.568C108.523 138.516 116.374 147.342 123.613 148.445V148.077C123.613 145.871 123.613 143.665 123.613 141.335C123.613 136.187 123.613 130.794 123.613 125.645C123.735 118.168 128.52 111.916 135.758 110.2C137.475 109.832 139.193 109.71 140.542 109.71C143.487 109.71 146.431 109.71 149.375 109.71H151.583L151.215 106.645C150.847 103.826 150.602 101.006 150.234 98.3097C149.743 94.2645 149.253 90.3419 148.762 86.2968C147.658 77.5935 146.554 68.6452 145.695 59.6968C144.345 46.3355 134.408 37.3871 121.159 37.2645C93.556 37.2645 65.8304 37.2645 38.2275 37.2645C25.2235 37.2645 15.2864 46.3355 13.937 59.329C13.3236 67.0516 12.4648 74.7742 11.4834 82.129C11.1153 85.5613 10.6246 89.1161 10.2566 92.5484L8.29371 109.71H11.1153H19.2122C29.3946 109.71 36.2647 116.574 36.2647 126.748C36.2647 131.774 36.2647 136.677 36.2647 141.703V148.568C43.9935 146.974 51.2316 138.761 52.9491 129.69C46.5697 129.077 40.8038 126.013 36.7554 121.11C32.4616 115.961 30.6214 109.465 31.4802 103.09C33.1977 90.5871 44.1161 81.3935 56.3841 82.3742C62.7634 82.8645 68.1613 85.3161 72.3325 89.8516C77.485 95.4903 79.4479 102.11 78.4664 109.587H81.5334C80.6747 103.213 82.1468 97.0839 85.8272 92.0581C89.7529 86.6645 96.0096 83.1097 102.389 82.3742C114.534 81.0258 126.311 90.0968 128.274 102.11C129.378 108.729 127.538 115.594 123.244 120.865C119.319 125.89 113.43 128.955 106.928 129.568ZM76.8716 82.2516C76.2582 82.2516 75.6448 82.2516 74.9087 82.2516C71.4737 82.129 68.7747 79.4323 68.7747 76C68.7747 72.5677 71.4737 69.871 74.9087 69.871C78.0984 69.871 81.4107 69.871 84.9684 69.871C88.4035 69.871 91.1024 72.5677 91.2251 76C91.2251 79.4323 88.5262 82.2516 84.9684 82.2516C83.8643 82.2516 82.6375 82.2516 81.5334 82.2516H79.9386C79.9386 82.2516 79.9386 82.2516 79.8159 82.2516C79.3252 82.2516 78.8345 82.2516 78.3438 82.2516C77.853 82.2516 77.3623 82.2516 76.8716 82.2516ZM79.9386 72.2C78.2211 72.2 76.6262 72.2 75.0314 72.2C72.9459 72.2 71.2283 73.9161 71.2283 75.8774C71.2283 77.9613 72.8232 79.5548 75.0314 79.6774C76.1355 79.6774 77.2396 79.6774 78.3438 79.6774C78.8345 79.6774 79.3252 79.6774 79.9386 79.6774H81.5334C82.6375 79.6774 83.7417 79.6774 84.9684 79.6774C87.1767 79.6774 88.8942 77.9613 88.7715 75.8774C88.7715 73.7935 87.054 72.2 84.9684 72.2C83.2509 72.2 81.5334 72.2 79.9386 72.2ZM109.872 77.2258C106.437 77.2258 103.738 74.529 103.616 70.8516C103.616 69.871 103.616 68.7677 103.616 67.6645V67.2968H103.37C102.389 67.2968 101.285 67.2968 100.303 67.2968C96.5003 67.2968 93.6787 64.7226 93.556 61.1677C93.556 59.5742 94.1694 57.9806 95.2735 56.8774C96.5003 55.6516 98.3405 54.9161 100.303 54.9161C101.285 54.9161 102.144 54.9161 103.248 54.9161H103.493V54.671C103.493 53.6903 103.493 52.5871 103.493 51.6065C103.493 47.8065 106.069 44.9871 109.627 44.8645C111.222 44.8645 112.817 45.4774 113.921 46.5806C115.148 47.8065 115.884 49.6452 115.884 51.6065C115.884 52.5871 115.884 53.5677 115.884 54.671V54.9161H116.129C117.11 54.9161 118.215 54.9161 119.196 54.9161C122.999 54.9161 125.821 57.4903 125.943 61.0452C125.943 62.6387 125.33 64.2323 124.226 65.3355C122.999 66.5613 121.159 67.2968 119.196 67.2968C118.215 67.2968 117.356 67.2968 116.252 67.2968H116.006V67.6645C116.006 68.7677 116.006 69.871 116.006 70.8516C116.129 74.4064 113.43 77.2258 109.872 77.2258C109.995 77.2258 109.995 77.2258 109.872 77.2258ZM104.965 64.8452C105.701 64.8452 106.192 65.3355 106.192 66.071V67.6645C106.192 68.7677 106.192 69.7484 106.192 70.729C106.192 73.0581 107.787 74.7742 109.995 74.7742C112.081 74.7742 113.675 73.0581 113.675 70.8516C113.675 69.7484 113.675 68.7677 113.675 67.6645V66.071C113.675 65.3355 114.166 64.8452 114.902 64.8452H116.374C117.356 64.8452 118.337 64.8452 119.319 64.8452C120.668 64.8452 121.895 64.3548 122.631 63.6194C123.244 63.0065 123.613 62.0258 123.613 61.0452C123.613 58.8387 121.895 57.3677 119.319 57.3677C118.337 57.3677 117.356 57.3677 116.252 57.3677H114.78C114.044 57.3677 113.553 56.8774 113.553 56.1419V54.671C113.553 53.5677 113.553 52.5871 113.553 51.729C113.553 50.3806 113.062 49.1548 112.326 48.4194C111.713 47.8065 110.854 47.4387 109.75 47.4387C107.541 47.4387 106.069 49.1548 106.069 51.729C106.069 52.7097 106.069 53.6903 106.069 54.7936V56.2645C106.069 57 105.579 57.4903 104.843 57.4903H103.37C102.389 57.4903 101.408 57.4903 100.426 57.4903C99.0766 57.4903 97.8498 57.9806 97.1137 58.7161C96.5003 59.329 96.1323 60.3097 96.1323 61.2903C96.1323 63.4968 97.8498 64.9677 100.426 64.9677C101.408 64.9677 102.389 64.9677 103.493 64.9677L104.965 64.8452ZM54.2986 74.2839C52.7037 74.2839 51.2316 73.671 50.0048 72.5677C49.146 71.8323 48.4099 70.8516 47.5512 69.9935C47.4285 69.871 47.3058 69.7484 47.1831 69.6258C47.0605 69.7484 47.0605 69.7484 46.9378 69.871C46.2017 70.729 45.4656 71.5871 44.7295 72.3226C42.1533 74.8968 38.2275 75.0194 35.7739 72.5677C33.3203 70.1161 33.3203 66.3161 36.0193 63.6194C36.7554 62.8839 37.4915 62.1484 38.3502 61.4129C38.4729 61.2903 38.5956 61.1677 38.7182 61.1677C38.5956 61.1677 38.5956 61.0452 38.4729 61.0452C37.6141 60.3097 36.8781 59.6968 36.142 58.9613C34.7925 57.6129 34.0564 55.8968 34.0564 54.1806C34.0564 52.5871 34.6698 51.1161 35.8966 49.8903C38.4729 47.4387 42.276 47.5613 44.9749 50.2581C45.711 50.9935 46.3244 51.729 47.0605 52.4645C47.1831 52.5871 47.1831 52.5871 47.3058 52.7097C47.4285 52.5871 47.4285 52.5871 47.5512 52.4645C48.2873 51.6065 49.0233 50.871 49.7594 50.1355C52.4584 47.5613 56.2614 47.4387 58.715 49.8903C61.1686 52.3419 61.1686 56.1419 58.4697 58.8387C57.7336 59.5742 56.9975 60.3097 56.1387 61.0452C56.0161 61.1677 56.0161 61.1677 55.8934 61.2903L58.4697 63.7419C61.0459 66.1935 61.2913 69.9935 58.9604 72.5677C57.8563 73.7935 56.3841 74.529 54.6666 74.529C54.4212 74.2839 54.2986 74.2839 54.2986 74.2839ZM47.0605 66.5613C47.4285 66.5613 47.6739 66.6839 47.9192 66.929C48.4099 67.4194 48.778 67.9097 49.146 68.2774C50.0048 69.1355 50.6182 69.9935 51.4769 70.729C52.3357 71.4645 53.3171 71.8323 54.2986 71.8323C55.28 71.8323 56.1387 71.3419 56.8748 70.6064C58.347 69.0129 58.1016 66.8065 56.5068 65.2129L53.0718 61.9032C52.8264 61.6581 52.7037 61.2903 52.7037 61.0452C52.7037 60.6774 52.8264 60.4323 53.0718 60.1871C53.5625 59.8194 53.9305 59.4516 54.2986 59.0839C55.1573 58.3484 55.8934 57.6129 56.5068 57C58.2243 55.2839 58.347 53.0774 56.7521 51.4839C55.1573 49.8903 52.9491 50.0129 51.2316 51.729C50.4955 52.4645 49.7594 53.2 49.0233 54.0581C48.6553 54.4258 48.2873 54.9161 47.9192 55.2839C47.6739 55.529 47.3058 55.6516 47.0605 55.6516C46.6924 55.6516 46.4471 55.529 46.2017 55.2839C45.8337 54.9161 45.4656 54.4258 45.0976 54.0581C44.3615 53.3226 43.7481 52.5871 43.012 51.8516C41.1718 50.1355 38.9636 49.8903 37.3688 51.4839C36.6327 52.2194 36.2647 53.0774 36.2647 54.0581C36.2647 55.1613 36.7554 56.2645 37.6141 57.1226C38.3502 57.8581 39.0863 58.471 39.8224 59.0839C40.1904 59.4516 40.6811 59.8194 41.0492 60.1871C41.2945 60.4323 41.4172 60.8 41.4172 61.0452C41.4172 61.4129 41.2945 61.7806 41.0492 61.9032C40.5584 62.3935 40.0677 62.7613 39.6997 63.129C38.8409 63.8645 38.1048 64.6 37.4915 65.3355C35.7739 67.0516 35.7739 69.3806 37.2461 70.8516C38.8409 72.3226 41.1718 72.3226 42.7667 70.6064C43.5028 69.871 44.1161 69.1355 44.9749 68.2774C45.3429 67.9097 45.711 67.4194 46.079 66.929C46.4471 66.6839 46.8151 66.5613 47.0605 66.5613Z" fill="url(#paint0_linear_1138_2768)"/>
<path d="M138.456 152C137.843 152 137.352 152 136.739 152C136.125 152 135.512 152 134.899 152C134.163 152 133.672 151.51 133.672 150.774V136.677C133.672 133.245 133.672 129.813 133.672 126.381C133.672 122.335 136.248 119.639 140.297 119.639C143.486 119.639 146.676 119.639 149.988 119.639H154.282C154.895 119.639 155.386 120.129 155.509 120.742C155.509 121.11 155.632 121.477 155.632 121.845C155.754 122.703 155.877 123.439 155.877 124.297C155.877 125.523 155.877 126.871 155.877 128.097C156 131.529 156 135.084 155.632 138.516C154.773 145.871 148.271 151.632 140.542 152C139.929 152 139.192 152 138.456 152ZM136.125 149.548C136.371 149.548 136.616 149.548 136.862 149.548C138.088 149.548 139.315 149.548 140.542 149.548C147.044 149.303 152.565 144.4 153.301 138.271C153.669 134.961 153.669 131.529 153.546 128.219C153.546 126.871 153.546 125.645 153.546 124.297C153.546 123.684 153.423 122.948 153.301 122.213V122.09H149.988C146.799 122.09 143.609 122.09 140.419 122.09C137.72 122.09 136.248 123.561 136.248 126.381C136.248 129.813 136.248 133.245 136.248 136.677L136.125 149.548Z" fill="url(#paint1_linear_1138_2768)"/>
<path d="M21.4205 152C13.8144 152 8.4165 148.813 5.47219 142.439C4.61343 140.6 4.00003 138.516 4.00003 136.677C3.87735 133 4.00003 129.445 4.12271 125.89C4.12271 124.665 4.24539 123.561 4.24539 122.335C4.24539 121.845 4.36807 121.477 4.49075 121.11C4.49075 120.987 4.61343 120.742 4.61343 120.619C4.73611 120.006 5.22683 119.639 5.84023 119.639C7.31238 119.639 8.78454 119.639 10.134 119.639C13.569 119.639 17.1267 119.639 20.6845 119.639C23.6288 119.639 26.205 122.335 26.3277 125.155C26.4504 131.284 26.3277 137.535 26.3277 143.542C26.3277 145.871 26.3277 148.2 26.3277 150.529C26.3277 151.142 25.837 151.632 25.2236 151.755C23.8741 152 22.6473 152 21.4205 152ZM6.82166 122.09C6.82166 122.213 6.82166 122.335 6.82166 122.458C6.82166 123.684 6.69898 124.787 6.69898 126.013C6.57631 129.568 6.45363 133.123 6.57631 136.677C6.57631 138.148 7.06702 139.865 7.8031 141.335C10.7474 147.465 16.0226 150.039 23.9968 149.303C23.9968 147.342 23.9968 145.381 23.9968 143.419C23.9968 137.413 23.9968 131.161 23.9968 125.032C23.9968 123.439 22.402 121.968 20.8071 121.845C17.3721 121.845 13.6917 121.845 10.2567 121.845C9.0299 122.09 7.92578 122.09 6.82166 122.09Z" fill="url(#paint2_linear_1138_2768)"/>
<path d="M55.035 119.639C54.9124 119.639 54.9124 119.639 54.7897 119.639C47.3062 119.516 41.2949 113.387 41.2949 105.91C41.2949 102.232 42.7671 98.8 45.3433 96.2258C47.9196 93.6516 51.3546 92.3032 55.1577 92.3032C58.8381 92.3032 62.1504 93.7742 64.7267 96.3484C67.303 98.9226 68.6525 102.477 68.6525 106.155C68.6525 109.832 67.1803 113.142 64.4814 115.716C62.0278 118.29 58.5927 119.639 55.035 119.639ZM55.035 94.7549C52.0907 94.7549 49.2691 95.8581 47.0609 98.0645C44.9753 100.148 43.7485 102.968 43.7485 105.91C43.7485 112.039 48.6557 117.187 54.7897 117.187C57.8567 117.31 60.6783 116.084 62.8865 114C64.9721 111.916 66.1989 109.097 66.3216 106.155C66.3216 103.09 65.2174 100.271 63.1319 98.0645C60.9237 95.8581 58.102 94.7549 55.035 94.7549C55.1577 94.7549 55.1577 94.7549 55.035 94.7549Z" fill="url(#paint3_linear_1138_2768)"/>
<path d="M104.965 119.639C104.842 119.639 104.842 119.639 104.965 119.639C101.162 119.639 97.8497 118.168 95.2734 115.594C92.6971 113.019 91.3477 109.465 91.3477 105.787C91.4703 98.3097 97.6043 92.3032 105.088 92.3032C108.768 92.3032 112.203 93.7742 114.779 96.3484C117.356 98.9226 118.828 102.355 118.705 106.032C118.705 109.71 117.233 113.142 114.657 115.716C111.958 118.168 108.523 119.639 104.965 119.639ZM104.965 94.7549C98.8311 94.7549 93.8012 99.6581 93.6786 105.787C93.6786 108.852 94.7827 111.671 96.8682 113.877C98.9538 115.961 101.775 117.187 104.72 117.187H104.842C107.787 117.187 110.608 116.084 112.817 113.877C114.902 111.794 116.129 108.974 116.129 106.032C116.129 102.968 115.025 100.148 112.817 98.0645C110.731 95.8581 108.032 94.7549 104.965 94.7549Z" fill="url(#paint4_linear_1138_2768)"/>
<path d="M84.9683 32.2387H75.154C74.4179 32.2387 73.9272 31.7484 73.9272 31.0129C73.9272 29.9097 73.9272 28.8065 73.9272 27.8258C73.9272 25.2516 73.8045 22.6774 74.0498 20.1032C74.1725 18.5097 75.0313 16.1807 78.589 15.0774C81.5333 14.0968 84.3549 13.1161 87.2992 12.1355C88.7714 11.6452 88.7714 11.5226 88.7714 9.92904C88.7714 9.43872 88.7714 8.94839 88.7714 8.58065C88.7714 7.72259 88.7714 6.86452 88.7714 6.00646C88.8941 2.5742 91.593 -0.122574 95.028 -0.122574C98.4631 -0.122574 101.162 2.5742 101.162 6.00646V6.86452C101.162 8.94839 101.162 11.0323 100.917 12.9936C100.058 17.8968 97.1136 21.4516 92.3291 23.4129C90.6116 24.0258 88.8941 24.6387 86.6858 25.3742C86.4405 25.4968 86.3178 25.4968 86.3178 25.4968C86.3178 25.4968 86.3178 25.6194 86.3178 25.8645C86.4405 26.9678 86.3178 28.1936 86.3178 29.4194C86.3178 29.9097 86.3178 30.4 86.3178 31.0129C86.1951 31.7484 85.7044 32.2387 84.9683 32.2387ZM76.3807 29.7871H83.7415C83.7415 29.6645 83.7415 29.5419 83.7415 29.4194C83.7415 28.3161 83.7415 27.2129 83.7415 26.1097C83.6188 24.5161 84.3549 23.5355 85.8271 23.0452C88.0353 22.4323 89.7528 21.8194 91.3477 21.2065C95.3961 19.6129 97.727 16.7936 98.4631 12.7484C98.7084 10.9097 98.7084 8.94839 98.7084 6.9871V6.12904C98.7084 4.04517 96.9909 2.45162 95.028 2.45162C92.9425 2.45162 91.3477 4.04517 91.225 6.25162C91.225 7.10968 91.225 7.84517 91.225 8.70323C91.225 9.19355 91.225 9.68388 91.225 10.1742C91.225 12.7484 90.4889 13.8516 88.0353 14.5871C85.091 15.5677 82.2694 16.5484 79.3251 17.529C76.6261 18.3871 76.5034 19.8581 76.5034 20.3484C76.3807 22.8 76.3807 25.3742 76.3807 27.8258C76.3807 28.4387 76.3807 29.1742 76.3807 29.7871Z" fill="url(#paint5_linear_1138_2768)"/>
</g>
<defs>
<filter id="filter0_d_1138_2768" x="0" y="0" width="160" height="160" filterUnits="userSpaceOnUse" color-interpolation-filters="sRGB">
<feFlood flood-opacity="0" result="BackgroundImageFix"/>
<feColorMatrix in="SourceAlpha" type="matrix" values="0 0 0 0 0 0 0 0 0 0 0 0 0 0 0 0 0 0 127 0" result="hardAlpha"/>
<feOffset dy="4"/>
<feGaussianBlur stdDeviation="2"/>
<feComposite in2="hardAlpha" operator="out"/>
<feColorMatrix type="matrix" values="0 0 0 0 0 0 0 0 0 0 0 0 0 0 0 0 0 0 0.25 0"/>
<feBlend mode="normal" in2="BackgroundImageFix" result="effect1_dropShadow_1138_2768"/>
<feBlend mode="normal" in="SourceGraphic" in2="effect1_dropShadow_1138_2768" result="shape"/>
</filter>
<linearGradient id="paint0_linear_1138_2768" x1="4.90616" y1="156.675" x2="158.33" y2="20.188" gradientUnits="userSpaceOnUse">
<stop stop-color="#FF6300"/>
<stop offset="1" stop-color="#F09819"/>
</linearGradient>
<linearGradient id="paint1_linear_1138_2768" x1="54.9819" y1="212.965" x2="208.406" y2="76.4781" gradientUnits="userSpaceOnUse">
<stop stop-color="#FF6300"/>
<stop offset="1" stop-color="#F09819"/>
</linearGradient>
<linearGradient id="paint2_linear_1138_2768" x1="-0.853905" y1="150.2" x2="152.57" y2="13.713" gradientUnits="userSpaceOnUse">
<stop stop-color="#FF6300"/>
<stop offset="1" stop-color="#F09819"/>
</linearGradient>
<linearGradient id="paint3_linear_1138_2768" x1="1.81835" y1="153.203" x2="155.242" y2="16.7165" gradientUnits="userSpaceOnUse">
<stop stop-color="#FF6300"/>
<stop offset="1" stop-color="#F09819"/>
</linearGradient>
<linearGradient id="paint4_linear_1138_2768" x1="23.839" y1="177.957" x2="177.263" y2="41.4703" gradientUnits="userSpaceOnUse">
<stop stop-color="#FF6300"/>
<stop offset="1" stop-color="#F09819"/>
</linearGradient>
<linearGradient id="paint5_linear_1138_2768" x1="-27.7922" y1="119.919" x2="125.632" y2="-16.568" gradientUnits="userSpaceOnUse">
<stop stop-color="#FF6300"/>
<stop offset="1" stop-color="#F09819"/>
</linearGradient>
<clipPath id="clip0_1138_2768">
<rect width="152" height="152" fill="white" transform="translate(4)"/>
</clipPath>
</defs>
</svg>
