<svg width="138" height="163" viewBox="0 0 138 163" fill="none" xmlns="http://www.w3.org/2000/svg">
<g filter="url(#filter0_d_1138_2804)">
<path d="M84.1619 38.7365C84.1619 42.3372 84.1619 45.7665 84.1619 49.1957C84.1619 52.9679 86.5624 55.3684 90.3345 55.3684C93.7638 55.3684 97.193 55.3684 100.622 55.3684C104.394 55.3684 105.938 53.6538 105.252 49.8816C104.566 46.6238 106.623 43.366 109.881 42.5087C114.682 41.137 118.797 45.4236 117.769 50.5674C117.254 53.3108 118.797 55.3684 121.541 55.3684C123.427 55.3684 125.313 55.3684 127.027 55.3684C129.771 55.3684 131.828 53.3108 131.828 50.7389C131.828 47.9955 131.828 45.2521 131.486 42.5087C128.914 21.0759 111.767 4.78696 90.1631 2.72941C86.3909 2.38648 84.1619 4.44403 84.1619 8.21621C84.1619 11.3025 84.1619 14.2174 84.1619 17.1323C82.1043 17.3037 80.3897 17.4752 78.5036 17.8181C77.1319 18.161 76.6175 19.3613 76.9605 20.5615C77.3034 21.7617 78.3322 22.2761 79.7039 22.1047C81.0756 21.9332 82.6187 21.9332 83.9904 22.1047C86.5624 22.4476 88.6199 20.9044 88.6199 18.3325C88.6199 15.932 88.6199 13.703 88.6199 11.3025C88.6199 10.1023 88.6199 8.7306 88.6199 7.3589C89.3058 7.3589 89.6487 7.3589 90.1631 7.3589C105.595 9.24498 116.74 17.1323 123.598 30.8493C126.513 36.679 127.713 43.0231 127.37 49.5387C127.37 50.0531 127.027 50.7389 126.685 50.9104C125.141 51.0818 123.77 50.9104 122.227 50.9104C123.255 42.5087 117.254 37.8792 111.767 37.8792C108.852 37.8792 106.281 38.7365 104.052 40.7941C101.137 43.5375 100.108 46.9667 100.622 51.0818C97.193 51.0818 93.7638 51.0818 90.506 51.0818C89.1343 51.0818 88.4484 50.5674 88.6199 49.1957C88.6199 45.595 88.6199 42.1658 88.6199 38.5651C88.6199 35.4787 86.5624 33.7641 83.6475 34.45C79.1895 35.3073 75.9317 32.9068 75.4173 28.4488C75.2458 26.7342 74.3885 25.8768 73.0168 26.0483C71.6451 26.2198 70.7878 27.2485 70.9593 28.7917C71.1307 32.0495 72.5024 34.7929 75.0744 36.8504C77.8178 38.7365 80.7326 39.2509 84.1619 38.7365ZM93.7638 118.295C91.7062 118.295 90.6774 119.495 91.0204 121.039C91.5348 123.61 92.2206 126.182 93.0779 128.754C93.4209 129.955 94.6211 130.64 95.6499 130.298C96.8501 129.955 97.536 128.926 97.3645 127.554C96.6787 124.982 96.1642 122.41 95.3069 120.01C94.964 119.152 94.1067 118.638 93.7638 118.295ZM119.826 95.1477C120.34 95.1477 120.855 95.3192 121.369 95.3192C122.055 95.3192 122.741 95.3192 123.255 95.3192C124.798 95.3192 125.827 94.4618 125.827 93.2616C125.827 92.0614 124.97 91.0326 123.427 90.8611C121.026 90.6897 118.626 90.5182 116.054 90.5182C114.511 90.5182 113.482 91.3755 113.482 92.5758C113.482 93.9475 114.339 94.8048 115.882 94.9762C117.254 95.1477 118.454 95.1477 119.826 95.1477ZM34.0948 16.2749C34.4378 18.6754 34.9522 21.4188 35.4665 24.1622C35.638 25.3625 36.6668 26.0483 37.867 25.8768C39.0672 25.7054 39.9246 24.8481 39.7531 23.6478C39.4102 20.9044 38.8958 18.161 38.3814 15.4176C38.2099 14.2174 37.1812 13.703 35.8095 13.8745C34.6092 13.8745 34.0948 14.7318 34.0948 16.2749ZM5.11769 45.595C3.40306 45.595 2.54576 46.2809 2.20283 47.4811C2.03137 48.6814 2.71722 49.7101 3.91746 50.0531C6.48939 50.5674 9.23279 51.0818 11.9762 51.2533C13.1764 51.4248 14.0337 50.7389 14.3767 49.3672C14.5481 48.167 14.0337 47.1382 12.8335 46.7953C10.0901 46.2809 7.3467 45.938 5.11769 45.595ZM23.1212 32.3924C22.9498 31.7066 22.7783 31.1922 22.6069 30.8493C20.7208 28.7917 18.6632 26.7342 16.6057 24.8481C15.7484 23.9908 14.5481 24.3337 13.8623 25.191C13.0049 26.0483 12.8335 27.2485 13.6908 28.1059C15.5769 30.1634 17.463 32.0495 19.5205 33.9356C20.0349 34.2785 21.2352 34.45 21.7495 34.107C22.2639 33.7641 22.7783 32.9068 23.1212 32.3924ZM108.852 107.836C108.167 108.35 107.309 108.865 107.138 109.551C106.966 110.236 107.309 111.437 107.824 111.951C109.538 113.666 111.424 115.037 113.31 116.581C114.511 117.609 115.882 117.609 116.74 116.581C117.597 115.552 117.426 114.18 116.054 113.151C114.339 111.608 112.453 110.236 110.739 108.865C110.224 108.35 109.538 108.179 108.852 107.836Z" fill="url(#paint0_linear_1138_2804)"/>
<path d="M48.1553 156.188C47.4694 156.017 46.9551 155.845 46.2692 155.503C42.497 154.131 40.0965 150.702 40.0965 146.244C40.0965 141.786 39.9251 137.499 40.0965 133.041C40.4395 126.011 38.2105 119.667 35.1241 113.323C34.9527 112.98 34.7812 112.808 34.6097 112.465C33.7524 110.922 34.0954 109.551 35.2956 108.865C36.4958 108.179 37.8675 108.693 38.7248 110.408C40.268 114.18 41.8112 117.952 43.3543 121.724C43.5258 122.067 43.5258 122.41 43.6973 122.753C44.3831 125.497 44.3831 125.497 47.298 125.497C51.4131 125.497 55.3567 125.497 59.6433 125.497C59.6433 122.753 59.6433 120.181 59.6433 117.609C59.6433 115.895 59.6433 114.352 59.6433 112.637C59.6433 109.722 61.8723 108.007 64.6157 108.693C68.7308 109.894 72.16 106.636 72.6744 103.721C73.5317 99.4343 69.4166 95.3192 65.1301 96.348C61.7008 97.0338 59.6433 95.4907 59.6433 91.89C59.6433 87.9463 59.6433 84.0027 59.6433 79.8876C55.5282 79.8876 51.756 79.8876 47.6409 79.8876C48.1553 84.1741 46.955 87.7749 43.5258 90.5183C41.2968 92.2329 38.7249 93.0902 35.9815 92.9187C31.1805 92.7473 25.1793 88.1178 26.0366 79.8876C24.6649 79.8876 23.1218 79.8876 21.5786 79.8876C21.7501 80.5734 21.7501 81.4307 21.9215 82.1166C23.4647 88.6322 26.551 94.4619 31.009 99.6058C31.1805 99.7772 31.352 99.9487 31.352 100.12C32.5522 101.492 32.5522 102.692 31.5234 103.721C30.4946 104.75 29.2944 104.407 27.9227 103.206C23.9791 98.9199 21.0642 93.9475 19.0067 88.4607C9.23329 61.7126 25.8652 32.9069 53.8135 27.763C55.3567 27.4201 56.8999 27.2486 58.6145 27.2486C61.3579 27.0771 63.9298 29.1347 63.9298 31.8781C63.9298 35.4788 63.9298 39.251 63.9298 42.8517C63.9298 45.4236 61.7008 46.9668 58.9574 46.4524C55.1852 45.7665 51.9275 47.4812 51.0702 50.9104C49.8699 55.5399 53.8135 59.655 58.6145 58.7977C62.2152 58.1118 63.9298 59.4835 63.9298 63.2557C63.9298 67.1994 63.9298 71.3145 63.9298 75.4296C65.9874 75.4296 67.8735 75.4296 69.931 75.4296C71.9886 75.4296 73.8747 75.4296 76.1037 75.4296C75.5893 71.3145 76.6181 67.8852 79.7044 65.1418C81.9334 63.2557 84.5053 62.2269 87.4202 62.3984C93.5928 62.7413 98.9082 68.5711 97.708 75.4296C98.9082 75.4296 100.108 75.4296 101.48 75.4296C105.252 75.4296 107.31 78.173 106.624 81.7737C104.909 90.0039 101.137 97.3768 95.4789 103.549C89.8207 109.894 86.0485 117.266 84.1624 125.497C83.8195 126.868 83.648 128.24 83.648 129.44C83.648 134.756 83.648 139.899 83.648 145.215C83.648 150.873 81.419 153.788 76.1037 155.674L75.9322 155.845C66.6732 156.188 57.4142 156.188 48.1553 156.188ZM59.6433 41.8229C59.6433 38.7366 59.6433 35.8217 59.6433 32.9069C59.6433 31.8781 59.1289 31.8781 58.2716 31.8781C40.7824 33.4212 25.8652 46.1095 21.9215 63.2557C20.8928 67.1994 20.5498 71.3145 20.8927 75.4296C22.7788 75.4296 24.6649 75.4296 26.3795 75.4296C29.4659 75.4296 31.1805 77.4871 30.4947 80.5734C30.1517 82.631 30.3232 84.5171 31.6949 86.2317C33.581 88.4607 36.8388 89.318 39.4107 87.9463C41.9826 86.7461 43.5258 83.6598 42.84 80.7449C42.1541 77.6586 43.8687 75.601 46.955 75.601C49.1841 75.601 51.5845 75.601 53.8135 75.601C55.6996 75.601 57.4142 75.601 59.3003 75.601C59.3003 71.4859 59.3003 67.5423 59.3003 63.5986C50.8987 63.0843 46.2692 59.3121 46.2692 52.7965C46.4407 46.1095 51.0702 42.3373 59.6433 41.8229ZM64.1013 92.2329C71.6456 91.0326 76.961 96.8624 77.1325 102.521C77.3039 105.435 76.2751 108.179 74.2176 110.236C71.4742 112.98 68.0449 114.18 64.1013 113.666C64.1013 117.781 64.1013 121.724 64.1013 125.84C68.9022 125.84 73.7032 125.84 78.5042 125.84C78.8471 125.84 79.3615 125.325 79.5329 124.982C81.7619 115.037 86.5629 106.807 93.2499 99.2628C97.5365 94.4619 100.28 88.6322 101.823 82.2881C101.995 81.6022 101.994 80.9164 102.166 80.059C100.451 80.059 98.9082 80.059 97.365 80.059C94.1072 80.059 92.7355 78.173 93.0785 74.9152C93.2499 73.5435 93.0785 71.8288 92.5641 70.6286C91.3638 67.7137 87.7631 66.342 84.8483 67.3708C81.7619 68.3996 80.0473 71.4859 80.7331 74.7437C81.419 78.173 79.8758 80.059 76.4466 80.059C73.7032 80.059 70.7883 80.059 68.0449 80.059C66.8447 80.059 65.473 80.059 64.1013 80.059C64.1013 84.1741 64.1013 88.1178 64.1013 92.2329ZM79.0185 143.157C79.0185 141.614 79.0185 140.242 79.0185 138.699C77.4754 138.699 76.1037 138.699 74.732 138.699C69.4166 138.699 64.2728 138.699 58.9574 138.699C57.0713 138.699 55.8711 137.499 56.3855 135.956C56.7284 134.584 57.7572 134.241 58.9574 134.241C65.1301 134.241 71.3027 134.241 77.3039 134.241C77.8183 134.241 78.3327 134.241 78.8471 134.241C78.8471 132.869 78.8471 131.669 78.8471 130.469C67.3591 130.469 56.0425 130.469 44.726 130.469C44.726 131.841 44.726 133.041 44.726 134.241C44.8975 134.241 45.069 134.413 45.069 134.413C45.9263 134.413 46.7836 134.413 47.6409 134.413C49.3555 134.413 50.2128 135.27 50.2128 136.642C50.2128 138.013 49.1841 138.871 47.4694 138.871C46.4407 138.871 45.5834 138.871 44.5546 138.871C44.5546 140.585 44.5546 141.957 44.5546 143.329C56.214 143.157 67.5305 143.157 79.0185 143.157ZM44.8975 147.787C45.5833 150.187 47.1265 151.559 49.527 151.559C50.7272 151.559 51.9275 151.559 53.1277 151.559C59.9862 151.559 66.8447 151.559 73.8746 151.559C76.618 151.559 78.5042 150.016 78.8471 147.615C67.5306 147.787 56.214 147.787 44.8975 147.787Z" fill="url(#paint1_linear_1138_2804)"/>
<path d="M84.1613 38.7367C80.732 39.251 77.8172 38.5652 75.2452 36.5076C72.6733 34.4501 71.3016 31.7067 71.1301 28.4489C70.9587 26.9057 71.816 25.7055 73.1877 25.7055C74.5594 25.534 75.4167 26.5628 75.5881 28.106C76.1025 32.564 79.1889 34.9645 83.8184 34.1072C86.7332 33.5928 88.7908 35.1359 88.7908 38.2223C88.7908 41.823 88.7908 45.2522 88.7908 48.8529C88.7908 50.2246 89.3052 50.9105 90.6769 50.739C93.9346 50.739 97.3639 50.739 100.793 50.739C100.279 46.6239 101.308 43.1947 104.222 40.4513C106.451 38.3937 109.023 37.5364 111.938 37.5364C117.254 37.7079 123.426 42.3374 122.397 50.5676C123.941 50.5676 125.312 50.5676 126.855 50.5676C127.198 50.5676 127.541 49.7103 127.541 49.1959C127.884 42.6803 126.684 36.3362 123.769 30.5065C116.911 16.618 105.766 8.73072 90.3339 7.01609C89.8195 7.01609 89.4766 7.01609 88.7908 7.01609C88.7908 8.38779 88.7908 9.58803 88.7908 10.9597C88.7908 13.3602 88.7908 15.5892 88.7908 17.9897C88.7908 20.5616 86.7332 22.1048 84.1613 21.7619C82.7896 21.5904 81.2464 21.7619 79.8747 21.7619C78.503 21.9333 77.4743 21.4189 77.1313 20.2187C76.7884 19.0185 77.3028 17.6468 78.6745 17.4753C80.3891 17.1324 82.2752 16.9609 84.3327 16.7895C84.3327 14.0461 84.3327 10.9597 84.3327 7.87341C84.3327 4.10123 86.5618 2.04368 90.3339 2.38661C111.938 4.27269 128.913 20.5616 131.656 42.1659C131.999 44.9093 131.999 47.6527 131.999 50.3961C131.999 53.1395 129.77 55.0256 127.198 55.0256C125.312 55.0256 123.426 55.0256 121.712 55.0256C118.968 55.0256 117.425 52.7966 117.939 50.2246C118.968 45.0808 115.025 40.9657 110.052 42.1659C106.794 43.0232 104.908 46.281 105.423 49.5388C106.108 53.311 104.737 55.0256 100.793 55.0256C97.3639 55.0256 93.9347 55.0256 90.5054 55.0256C86.7332 55.0256 84.3327 52.6251 84.3327 48.8529C84.1613 45.7666 84.1613 42.3374 84.1613 38.7367Z" fill="url(#paint2_linear_1138_2804)"/>
<path d="M93.7635 118.295C94.1064 118.638 94.9637 119.153 95.3066 119.838C96.1639 122.41 96.8498 124.811 97.3642 127.383C97.7071 128.755 97.0213 129.783 95.6496 130.126C94.4493 130.469 93.4206 129.783 93.0776 128.583C92.3918 126.011 91.7059 123.439 91.0201 120.867C90.6771 119.496 91.7059 118.295 93.7635 118.295Z" fill="url(#paint3_linear_1138_2804)"/>
<path d="M119.826 95.148C118.626 95.148 117.254 94.9765 116.054 94.9765C114.511 94.805 113.482 93.9477 113.653 92.576C113.653 91.2043 114.682 90.5185 116.225 90.5185C118.626 90.5185 121.198 90.6899 123.598 90.8614C125.141 91.0329 125.999 92.0616 125.999 93.2619C125.999 94.4621 124.97 95.3194 123.427 95.3194C122.741 95.3194 122.055 95.3194 121.541 95.3194C120.683 95.3194 120.34 95.3194 119.826 95.148Z" fill="url(#paint4_linear_1138_2804)"/>
<path d="M34.0947 16.2749C34.0947 14.7317 34.6091 13.8744 35.9808 13.703C37.1811 13.5315 38.2098 14.0459 38.5528 15.2461C39.0671 17.9895 39.5815 20.7329 39.9245 23.4763C40.0959 24.6766 39.2386 25.5339 38.0384 25.7053C36.8381 25.8768 35.8094 25.3624 35.6379 23.9907C34.7806 21.4188 34.4377 18.6754 34.0947 16.2749Z" fill="url(#paint5_linear_1138_2804)"/>
<path d="M5.11815 45.595C7.34716 45.938 10.0906 46.2809 12.6625 46.7953C13.8627 46.9667 14.5486 47.9955 14.2057 49.3672C14.0342 50.7389 13.1769 51.4248 11.8052 51.2533C9.06178 50.9104 6.48985 50.5675 3.74645 50.0531C2.37475 49.8816 1.86036 48.6814 2.03182 47.4811C2.37475 46.1094 3.40353 45.4236 5.11815 45.595Z" fill="url(#paint6_linear_1138_2804)"/>
<path d="M23.123 32.3926C22.6086 32.907 22.2657 33.7643 21.7513 33.9358C21.0654 34.1072 19.8652 34.1072 19.5223 33.7643C17.4647 31.8782 15.5786 29.9921 13.6926 27.9346C12.8352 27.0773 13.0067 26.0485 13.864 25.0197C14.7213 24.1624 15.7501 23.9909 16.6074 24.6768C18.665 26.5629 20.7225 28.6204 22.6086 30.678C22.9515 31.1924 22.9515 31.7067 23.123 32.3926Z" fill="url(#paint7_linear_1138_2804)"/>
<path d="M108.853 107.836C109.71 108.179 110.225 108.35 110.739 108.865C112.625 110.237 114.34 111.78 116.054 113.151C117.426 114.352 117.598 115.552 116.74 116.581C115.883 117.609 114.511 117.609 113.311 116.581C111.425 115.038 109.539 113.666 107.824 111.951C107.31 111.437 106.967 110.237 107.138 109.551C107.138 108.865 108.167 108.35 108.853 107.836Z" fill="url(#paint8_linear_1138_2804)"/>
</g>
<defs>
<filter id="filter0_d_1138_2804" x="0" y="0.349609" width="137.999" height="161.839" filterUnits="userSpaceOnUse" color-interpolation-filters="sRGB">
<feFlood flood-opacity="0" result="BackgroundImageFix"/>
<feColorMatrix in="SourceAlpha" type="matrix" values="0 0 0 0 0 0 0 0 0 0 0 0 0 0 0 0 0 0 127 0" result="hardAlpha"/>
<feOffset dx="2" dy="2"/>
<feGaussianBlur stdDeviation="2"/>
<feComposite in2="hardAlpha" operator="out"/>
<feColorMatrix type="matrix" values="0 0 0 0 0 0 0 0 0 0 0 0 0 0 0 0 0 0 0.25 0"/>
<feBlend mode="normal" in2="BackgroundImageFix" result="effect1_dropShadow_1138_2804"/>
<feBlend mode="normal" in="SourceGraphic" in2="effect1_dropShadow_1138_2804" result="shape"/>
</filter>
<linearGradient id="paint0_linear_1138_2804" x1="-2.78913" y1="146.737" x2="126.623" y2="2.29958" gradientUnits="userSpaceOnUse">
<stop stop-color="#FF6300"/>
<stop offset="1" stop-color="#F09819"/>
</linearGradient>
<linearGradient id="paint1_linear_1138_2804" x1="4.66467" y1="153.416" x2="134.077" y2="8.9777" gradientUnits="userSpaceOnUse">
<stop stop-color="#FF6300"/>
<stop offset="1" stop-color="#F09819"/>
</linearGradient>
<linearGradient id="paint2_linear_1138_2804" x1="0.19267" y1="149.41" x2="129.605" y2="4.97191" gradientUnits="userSpaceOnUse">
<stop stop-color="#FF6300"/>
<stop offset="1" stop-color="#F09819"/>
</linearGradient>
<linearGradient id="paint3_linear_1138_2804" x1="39.8563" y1="184.948" x2="169.269" y2="40.5091" gradientUnits="userSpaceOnUse">
<stop stop-color="#FF6300"/>
<stop offset="1" stop-color="#F09819"/>
</linearGradient>
<linearGradient id="paint4_linear_1138_2804" x1="38.3879" y1="183.631" x2="167.8" y2="39.1934" gradientUnits="userSpaceOnUse">
<stop stop-color="#FF6300"/>
<stop offset="1" stop-color="#F09819"/>
</linearGradient>
<linearGradient id="paint5_linear_1138_2804" x1="-43.8628" y1="109.937" x2="85.5499" y2="-34.5013" gradientUnits="userSpaceOnUse">
<stop stop-color="#FF6300"/>
<stop offset="1" stop-color="#F09819"/>
</linearGradient>
<linearGradient id="paint6_linear_1138_2804" x1="-45.5115" y1="108.459" x2="83.901" y2="-35.979" gradientUnits="userSpaceOnUse">
<stop stop-color="#FF6300"/>
<stop offset="1" stop-color="#F09819"/>
</linearGradient>
<linearGradient id="paint7_linear_1138_2804" x1="-49.536" y1="104.852" x2="79.8765" y2="-39.5857" gradientUnits="userSpaceOnUse">
<stop stop-color="#FF6300"/>
<stop offset="1" stop-color="#F09819"/>
</linearGradient>
<linearGradient id="paint8_linear_1138_2804" x1="43.9672" y1="188.63" x2="173.38" y2="44.1918" gradientUnits="userSpaceOnUse">
<stop stop-color="#FF6300"/>
<stop offset="1" stop-color="#F09819"/>
</linearGradient>
</defs>
</svg>
