<svg width="145" height="146" viewBox="0 0 145 146" fill="none" xmlns="http://www.w3.org/2000/svg">
<path d="M141.719 133.875C140.752 133.875 139.785 133.875 138.817 133.875C138.011 133.875 137.689 133.713 137.366 132.907C136.076 130.005 134.625 127.264 133.174 124.523C132.529 123.233 131.562 122.589 130.111 122.589C120.437 122.589 111.086 121.299 101.735 119.042C100.767 118.719 100.284 118.397 99.8001 117.429C96.898 111.141 93.9959 105.015 91.0938 98.8881C90.9325 98.4044 90.7713 98.0819 90.4489 97.5982C92.5448 97.2758 94.4796 97.1145 96.4143 96.7921C96.7368 96.7921 97.2204 96.7921 97.5429 96.7921C97.7041 97.1145 97.7041 97.2758 97.8654 97.5982C98.994 101.79 102.863 104.531 107.055 104.047C111.409 103.402 114.472 100.017 114.633 95.5023C114.633 94.6961 114.633 93.89 114.633 93.0838C116.568 92.2777 118.18 91.794 119.954 90.9879C123.178 89.5368 126.403 87.9246 128.821 85.1837C132.368 81.153 132.529 76.3161 128.66 72.6079C126.886 70.8344 124.79 69.3833 122.694 68.2547C118.503 65.8363 113.666 64.3853 108.99 63.2567C108.023 62.9342 107.539 62.6118 107.217 61.6444C104.798 53.0993 99.9613 46.489 92.2224 41.9746C84.4835 37.4602 76.2608 36.1704 67.3933 36.9765C52.5603 38.2663 41.1131 47.6176 36.9212 61.9669C36.76 62.773 36.2763 63.0954 35.4701 63.2567C32.568 64.0628 29.8272 64.869 26.9251 65.8363C22.5719 67.4486 18.38 69.3833 15.3166 72.9303C12.0921 76.6386 11.7697 81.153 15.1554 84.7C16.7677 86.4735 18.8637 88.0858 21.1208 89.3756C23.8617 90.9879 26.7638 91.9553 29.8271 93.4063C29.8271 95.6635 29.666 98.0819 31.117 100.339C32.5681 102.596 34.5028 103.886 37.0824 104.37C41.2743 105.015 44.1764 102.919 46.9173 97.1145C49.1745 97.437 51.4317 97.7595 53.8502 97.9207C53.8502 98.2431 53.6889 98.4044 53.6889 98.5656C50.6256 105.176 47.5622 111.786 44.3377 118.397C44.1764 118.88 43.5315 119.203 42.8866 119.364C33.5354 121.782 24.023 122.911 14.3493 123.072C12.8983 123.072 11.9308 123.717 11.2859 125.007C10.1573 127.264 8.86751 129.36 8.06137 131.779C7.25523 133.875 5.96545 134.842 3.86949 134.358C2.09598 134.036 0.80614 134.842 0 136.293C0 136.777 0 137.422 0 137.905C0.80614 139.356 2.09598 139.84 3.86949 139.84C10.4798 139.84 17.2514 139.84 23.8617 139.84C24.023 139.84 24.3454 139.84 24.5066 139.84C26.2802 139.84 27.57 138.711 27.57 137.099C27.57 135.487 26.2802 134.358 24.5066 134.358C21.2821 134.358 17.8963 134.358 14.6717 134.358C14.188 134.358 13.7044 134.358 12.8982 134.358C13.8656 132.423 14.6717 130.65 15.6391 129.038C15.8003 128.876 16.1228 128.715 16.4452 128.715C27.7312 128.554 38.6947 126.458 49.497 123.717C54.495 122.589 59.3319 122.75 64.0075 125.007C65.9422 125.974 67.7157 127.264 68.6831 129.36C69.0056 130.166 69.1668 130.972 69.328 131.779C69.4892 133.23 70.7791 134.358 72.2301 134.358C73.6812 134.358 74.971 133.23 74.971 131.779C75.1322 129.038 76.5833 127.264 78.6793 125.974C83.1936 123.072 88.1917 122.589 93.5122 123.556C99.9613 124.846 106.249 126.297 112.698 127.425C117.535 128.232 122.533 128.393 127.37 128.715C128.176 128.715 128.66 129.038 129.144 129.844C129.788 131.295 130.595 132.746 131.401 134.519C130.756 134.519 130.111 134.519 129.627 134.519C114.633 134.519 99.6389 134.519 84.4835 134.519C82.8712 134.519 81.5813 134.842 80.614 136.132C78.1955 139.518 74.971 140.646 70.7791 140.324C68.5219 140.162 66.9096 139.679 65.2973 138.066C61.2666 133.875 62.7177 134.681 57.2359 134.681C54.9787 134.681 52.7215 134.681 50.4644 134.681C48.5296 134.681 47.2398 135.809 47.401 137.583C47.401 139.195 48.6908 140.324 50.4644 140.324C53.2052 140.324 55.9461 140.324 58.687 140.324C59.3319 140.324 59.9768 140.646 60.4605 141.13C62.234 142.742 64.0075 144.354 65.6198 145.967C69.9729 145.967 74.3261 145.967 78.518 145.967C80.1303 144.354 81.9038 142.903 83.5161 141.291C84.161 140.646 84.8059 140.324 85.7733 140.324C103.831 140.324 121.888 140.324 139.946 140.324C140.43 140.324 140.913 140.324 141.397 140.324C143.009 140.162 144.138 138.873 144.138 137.422C144.299 135.164 143.17 134.036 141.719 133.875ZM106.572 98.2432C104.959 98.5656 103.831 97.5982 103.186 95.6635C104.959 95.1798 106.733 94.8574 108.668 94.3737C108.99 96.6309 108.184 97.9207 106.572 98.2432ZM65.4585 42.6195C72.5526 41.3297 79.4854 41.8134 86.0957 44.7155C96.2531 49.2298 101.574 57.2912 103.025 68.2547C103.186 69.0609 103.186 70.0283 103.186 70.8344C89.3203 77.2835 57.7196 77.2835 41.2743 70.9956C41.758 57.4525 49.8194 45.3604 65.4585 42.6195ZM38.0498 98.4044C36.2763 98.2431 35.4701 96.7921 35.6314 94.5349C37.4049 94.8574 39.1784 95.3411 41.1131 95.8247C40.7906 97.5982 39.5008 98.5656 38.0498 98.4044ZM29.5047 86.796C26.9251 85.9898 24.5066 84.7 22.0882 83.4102C21.4433 83.0877 20.9596 82.604 20.4759 82.2816C18.0575 80.0244 18.0575 77.7672 20.4759 75.51C23.378 72.9304 26.9251 71.4793 30.4721 70.1895C32.0844 69.5446 33.8578 69.2221 35.4701 68.5772C35.4701 70.0282 35.4701 71.1569 35.4701 72.4467C35.4701 74.2202 36.1151 75.1876 37.7274 75.6712C44.9826 77.9284 52.2378 79.5407 59.6543 80.5081C75.1322 82.604 90.1264 80.5081 104.959 76.1549C108.506 75.0263 108.829 74.7039 108.668 70.9956C108.668 70.3507 108.668 69.5446 108.506 68.5772C113.988 70.1895 119.309 71.6405 123.662 75.3488C126.403 77.606 126.241 80.0244 123.662 82.4428C120.921 84.8612 117.535 86.151 114.149 87.1184C106.41 89.5368 98.5103 90.6654 90.6101 91.6328C82.065 92.6002 73.52 93.2451 64.8136 92.6002C52.8828 91.4716 40.9519 90.343 29.5047 86.796ZM69.328 98.4044C71.2627 98.4044 73.0362 98.4044 74.971 98.4044C74.8098 100.178 75.6159 102.113 73.6812 103.402C72.7138 104.047 71.5852 104.047 70.6179 103.402C68.8443 102.274 69.4892 100.339 69.328 98.4044ZM81.9038 117.913C78.1956 118.88 74.971 120.654 72.2301 123.717C69.4893 120.815 66.2647 119.042 62.5565 117.913C58.8482 116.946 55.14 116.784 51.1093 117.268C51.4317 116.623 51.5929 116.139 51.7542 115.817C54.3338 110.496 56.9135 105.015 59.3319 99.6942C59.8156 98.5656 60.4605 97.9207 61.9116 98.2432C62.5565 98.4044 63.0401 98.2431 63.8463 98.4044C63.8463 99.533 63.8463 100.5 63.8463 101.629C64.0075 106.305 67.7158 109.852 72.2301 109.852C76.7445 109.852 80.614 106.143 80.614 101.629C80.614 100.662 80.614 99.533 80.614 98.4044C81.7426 98.4044 82.71 98.2432 83.6773 98.2432C83.9998 98.2432 84.4835 98.5656 84.4835 98.7268C87.3856 104.853 90.2877 110.98 93.1898 117.429C89.3203 116.784 85.6121 116.946 81.9038 117.913Z" fill="url(#paint0_linear_1401_19592)"/>
<path d="M100.445 16.9842C100.767 17.4679 100.767 18.274 100.606 18.7577C99.9613 21.3374 99.3163 23.917 98.6714 26.4967C98.8327 26.4967 98.9939 26.4966 98.9939 26.6579C98.9939 40.5235 113.182 50.1972 126.241 44.8766C127.209 44.5542 127.854 44.5542 128.66 45.0379C131.239 46.4889 133.819 47.7787 136.882 48.1012C141.881 48.7461 145.105 45.5216 144.299 40.5235C143.654 36.4928 141.719 32.9458 139.462 29.56C138.817 28.5926 138.495 27.7865 138.495 26.4967C138.495 15.6944 129.627 6.82684 118.825 6.82684C117.696 6.82684 116.729 6.50439 115.762 5.85948C112.376 3.60229 108.829 1.66755 104.637 1.02264C99.8 0.216498 96.4143 3.60228 97.2204 8.43912C97.7041 11.5025 98.9939 14.2433 100.445 16.9842ZM108.668 36.3316C105.282 32.9458 104.153 28.7539 104.798 23.5946C109.796 29.8824 115.117 35.3642 121.566 40.3623C116.407 41.1684 112.215 39.8786 108.668 36.3316ZM138.656 41.3296C138.978 42.1358 138.495 42.6195 137.689 42.4582C136.076 41.9745 134.303 41.4909 132.529 40.8459C133.98 38.9112 135.109 37.2989 136.56 35.3642C137.366 37.4602 138.011 39.3949 138.656 41.3296ZM121.566 12.631C127.37 13.7596 131.078 17.4679 132.529 23.2721C133.819 28.9151 131.884 33.5907 127.531 37.4602C119.792 31.9784 113.182 25.3681 107.7 17.6291C111.408 13.4372 115.923 11.5025 121.566 12.631ZM109.635 8.76157C107.861 10.0514 106.249 11.18 104.314 12.631C103.67 10.6963 103.025 8.76157 102.38 6.50438C105.443 6.50438 107.539 7.63298 109.635 8.76157Z" fill="url(#paint1_linear_1401_19592)"/>
<path d="M38.5341 25.0456C39.3402 25.0456 40.3076 25.0456 41.2749 25.0456C41.2749 26.013 41.2749 26.9804 41.2749 27.7865C41.2749 29.3988 42.5648 30.6886 44.0158 30.6886C45.6281 30.6886 46.7567 29.56 46.7567 27.7865C46.7567 26.9804 46.7567 26.013 46.7567 25.2069C48.0465 25.0457 49.3363 25.2069 50.4649 24.8844C51.7548 24.562 52.3996 23.5946 52.3996 22.3048C52.3996 20.37 51.271 19.7251 46.7567 19.4027C46.7567 18.4353 46.7567 17.6292 46.7567 16.823C46.7567 15.0495 45.6281 13.9209 44.0158 13.9209C42.4035 13.9209 41.2749 15.0495 41.1137 16.823C41.1137 17.6292 41.1137 18.5965 41.1137 19.4027C40.1463 19.4027 39.3402 19.4027 38.5341 19.4027C36.7606 19.4027 35.4707 20.6925 35.4707 22.3048C35.6319 23.9171 36.7606 25.0456 38.5341 25.0456Z" fill="url(#paint2_linear_1401_19592)"/>
<path d="M15.9617 53.2604C16.7678 53.2604 17.7352 53.2604 18.7025 53.2604C18.7025 54.2278 18.7025 55.1951 18.7025 56.0013C18.7025 57.7748 19.9924 58.9034 21.4434 58.9034C23.0557 58.9034 24.1843 57.7748 24.3455 56.0013C24.3455 55.1951 24.3455 54.2278 24.3455 53.2604C25.4741 53.2604 26.4415 53.2604 27.2477 53.2604C28.8599 53.0992 29.9885 51.8093 29.9885 50.3583C29.9885 48.9072 28.8599 47.7786 27.2477 47.6174C26.2803 47.6174 25.4741 47.6174 24.3455 47.6174C24.3455 46.65 24.3455 45.8439 24.3455 45.0378C24.3455 43.2643 23.0557 41.9744 21.4434 41.9744C19.8312 41.9744 18.7025 43.2643 18.7025 44.8765C18.7025 45.6827 18.7025 46.65 18.7025 47.6174C17.574 47.6174 16.7678 47.6174 15.9617 47.6174C14.1882 47.6174 13.0596 48.9072 13.0596 50.3583C13.0596 51.9706 14.1882 53.2604 15.9617 53.2604Z" fill="url(#paint3_linear_1401_19592)"/>
<path d="M37.5662 133.874C36.1151 133.874 34.8253 135.003 34.6641 136.615C34.6641 138.228 35.9539 139.517 37.405 139.517C39.0172 139.517 40.307 138.228 40.307 136.615C40.307 135.164 39.1785 133.874 37.5662 133.874Z" fill="url(#paint4_linear_1401_19592)"/>
<path d="M74.9707 50.3583C74.9707 48.5848 73.5197 47.6174 71.1013 47.6174C67.0706 47.7786 63.3623 48.5848 59.6541 50.1971C53.8499 52.9379 49.9804 57.4523 48.0457 63.579C47.4008 65.675 48.6906 67.4485 50.6253 67.4485C52.0764 67.4485 52.8825 66.8035 53.5274 65.03C54.8173 61.1606 57.0744 58.0972 60.6215 56.1625C63.846 54.2278 67.5543 53.4216 71.2625 53.4216C73.8422 53.2604 75.132 52.1318 74.9707 50.3583Z" fill="url(#paint5_linear_1401_19592)"/>
<defs>
<linearGradient id="paint0_linear_1401_19592" x1="19.4952" y1="156.427" x2="159.563" y2="37.3252" gradientUnits="userSpaceOnUse">
<stop stop-color="#FF6300"/>
<stop offset="1" stop-color="#F09819"/>
</linearGradient>
<linearGradient id="paint1_linear_1401_19592" x1="-3.13395" y1="129.815" x2="136.934" y2="10.7127" gradientUnits="userSpaceOnUse">
<stop stop-color="#FF6300"/>
<stop offset="1" stop-color="#F09819"/>
</linearGradient>
<linearGradient id="paint2_linear_1401_19592" x1="-36.421" y1="90.6677" x2="103.647" y2="-28.4345" gradientUnits="userSpaceOnUse">
<stop stop-color="#FF6300"/>
<stop offset="1" stop-color="#F09819"/>
</linearGradient>
<linearGradient id="paint3_linear_1401_19592" x1="-31.9746" y1="95.8973" x2="108.093" y2="-23.205" gradientUnits="userSpaceOnUse">
<stop stop-color="#FF6300"/>
<stop offset="1" stop-color="#F09819"/>
</linearGradient>
<linearGradient id="paint4_linear_1401_19592" x1="17.3321" y1="153.883" x2="157.4" y2="34.7812" gradientUnits="userSpaceOnUse">
<stop stop-color="#FF6300"/>
<stop offset="1" stop-color="#F09819"/>
</linearGradient>
<linearGradient id="paint5_linear_1401_19592" x1="-12.7132" y1="118.55" x2="127.355" y2="-0.552492" gradientUnits="userSpaceOnUse">
<stop stop-color="#FF6300"/>
<stop offset="1" stop-color="#F09819"/>
</linearGradient>
</defs>
</svg>
